<svg width="47.291016" height="121.882446" viewBox="0 0 47.291 121.882" fill="none" xmlns="http://www.w3.org/2000/svg" xmlns:xlink="http://www.w3.org/1999/xlink">
	<desc>
			Created with Pixso.
	</desc>
	<defs/>
	<path id="Vector" d="M9.65625 49.8812C9.91016 49.6261 23.3076 36.1597 22.4531 37.0187L16.5283 23.0454C12.8203 29.6686 9.96973 39.1537 9.65625 49.8812Z" fill="#363C13" fill-opacity="1.000000" fill-rule="nonzero"/>
	<path id="Vector" d="M36.2783 3.06531C36.3428 3.052 36.4092 3.02808 36.4736 3.01575L32.9141 0.997681C31.0205 -0.0721436 28.9531 -0.284302 26.5322 0.374146L33.0713 4.0791C33.6406 3.8385 35.2529 3.2771 36.2783 3.06531Z" fill="#363C13" fill-opacity="1.000000" fill-rule="nonzero"/>
	<path id="Vector" d="M13.4395 75.0149L6.91699 53.6055C4.75684 46.3947 10.9277 26.9994 14.833 20.5685L7.58984 16.4475C5.49512 19.9015 0.494141 29.5907 0.0126953 44.0508C-0.0634766 46.2112 0.201172 48.3055 0.800781 50.2822L6.4248 68.8003C7.5166 72.3772 8.05859 76.412 8.03027 80.7897C8.03027 80.7961 8.03027 80.8026 8.03027 80.8077L7.40527 111.698C7.38281 113.827 8.02734 115.371 9.21777 116.032L14.4316 118.999L14.4316 118.993C14.3008 118.486 14.2793 117.592 14.2793 117.104L14.9043 86.1866C14.9316 82.0264 14.4385 78.2618 13.4395 75.0149Z" fill="#363C13" fill-opacity="1.000000" fill-rule="nonzero"/>
	<path id="Vector" d="M34.8828 16.5665L31.8311 6.44531L25.6689 2.95508L28.7207 13.0764L34.8828 16.5665Z" fill="#363C13" fill-opacity="1.000000" fill-rule="nonzero"/>
	<path id="Vector" d="M31.3564 28.0576L35.3857 19.9492L28.1328 15.8213L24.1182 23.9944C24.0537 24.1238 23.9688 24.2415 23.8682 24.3436L21.1738 27.059L24.5078 34.9292L31.3564 28.0576Z" fill="#363C13" fill-opacity="1.000000" fill-rule="nonzero"/>
	<path id="Vector" d="M16.3936 55.5677L18.7109 57.7113L27.3232 48.9678L25.0049 46.8242L16.3936 55.5677Z" fill="#363C13" fill-opacity="1.000000" fill-rule="nonzero"/>
	<path id="Vector" d="M34.6553 6.3634L38.46 18.9933C38.4971 19.1162 38.5156 19.243 38.5156 19.3698C38.5156 19.389 38.5039 19.4102 38.5029 19.4303C38.5029 19.5452 38.4756 19.6565 38.4434 19.7703C38.4414 19.7786 38.4404 19.786 38.4375 19.7941C38.417 19.8627 38.4141 19.9335 38.3809 19.9998L33.708 29.4044C33.6445 29.5325 33.5605 29.6489 33.459 29.7511C16.0596 47.2645 25.5322 37.722 9.74902 53.594L16.0439 74.2568C17.1201 77.7534 17.6514 81.7805 17.6221 86.2216L16.9971 117.13C16.9971 120.34 18.8701 123.543 23.5459 120.91C27.9014 118.462 31.4961 112.303 31.3965 107.459L30.3936 77.1416C30.2217 67.5442 32.7852 56.9443 37.8027 46.4685C57.2373 6.18494 41.9727 3.53345 34.6553 6.3634ZM25.0664 113.66C22.5908 115.108 20.0674 113.735 20.0674 110.878C20.0674 108.573 21.6436 105.897 23.6807 104.758C26.2461 103.313 28.708 104.696 28.708 107.54C28.708 109.871 27.1318 112.494 25.0664 113.66ZM13.4863 54.6947L23.9795 44.0404C24.4971 43.5126 25.3535 43.4945 25.8955 43.9965L30.1846 47.9626C30.4473 48.2059 30.5986 48.5397 30.6074 48.8928C30.6152 49.246 30.4785 49.5875 30.2295 49.8411L19.7363 60.4952C19.2207 61.0209 18.3623 61.0406 17.8203 60.5393L13.5312 56.573L13.4863 54.6947Z" fill="#363C13" fill-opacity="1.000000" fill-rule="nonzero"/>
</svg>
