<svg width="30.000000" height="30.000000" viewBox="0 0 30 30" fill="none" xmlns="http://www.w3.org/2000/svg" xmlns:xlink="http://www.w3.org/1999/xlink">
	<desc>
			Created with Pixso.
	</desc>
	<defs/>
	<rect id="reserve" width="30.000000" height="30.000000" fill="#FFFFFF" fill-opacity="0"/>
	<path id="Vector" d="M23.7124 28.4375L6.2124 28.4375C1.5249 28.4375 1.5249 25.8374 1.5249 23.75L1.5249 22.5C1.5249 21.3 2.51245 20.3125 3.7124 20.3125L26.2124 20.3125C27.4124 20.3125 28.3999 21.3 28.3999 22.5L28.3999 23.75C28.3999 25.8374 28.3999 28.4375 23.7124 28.4375ZM3.7124 22.1875C3.53735 22.1875 3.3999 22.325 3.3999 22.5L3.3999 23.75C3.3999 25.8 3.3999 26.5625 6.2124 26.5625L23.7124 26.5625C26.5249 26.5625 26.5249 25.8 26.5249 23.75L26.5249 22.5C26.5249 22.325 26.3875 22.1875 26.2124 22.1875L3.7124 22.1875Z" fill="#FFFFFF" fill-opacity="1.000000" fill-rule="nonzero"/>
	<path id="Vector" d="M25.8999 22.1875L4.0874 22.1875C3.57495 22.1875 3.1499 21.7625 3.1499 21.25L3.1499 16.25C3.1499 11.125 6.78735 6.625 11.7874 5.5625C12.5249 5.3999 13.2998 5.3125 14.0874 5.3125L15.8999 5.3125C16.7 5.3125 17.4749 5.3999 18.2124 5.5625C23.2124 6.63745 26.8374 11.1375 26.8374 16.25L26.8374 21.25C26.8374 21.7625 26.4248 22.1875 25.8999 22.1875ZM5.0249 20.3125L24.9624 20.3125L24.9624 16.25C24.9624 12.0125 21.9624 8.2876 17.8125 7.38745C17.2 7.25 16.5625 7.1875 15.8999 7.1875L14.0874 7.1875C13.4375 7.1875 12.7998 7.25 12.1875 7.38745C8.03735 8.2749 5.0249 12 5.0249 16.25L5.0249 20.3125Z" fill="#FFFFFF" fill-opacity="1.000000" fill-rule="nonzero"/>
	<path id="Vector" d="M11.9875 7.4126C11.575 7.4126 11.2 7.13745 11.0874 6.7251C10.9875 6.36255 10.9375 6 10.9375 5.625C10.9375 3.38745 12.7625 1.5625 15 1.5625C17.2375 1.5625 19.0625 3.38745 19.0625 5.625C19.0625 6 19.0125 6.36255 18.9126 6.7251C18.7876 7.19995 18.3125 7.5 17.8125 7.38745C17.2 7.25 16.5625 7.1875 15.8999 7.1875L14.0874 7.1875C13.4375 7.1875 12.8 7.25 12.1875 7.38745C12.125 7.3999 12.0625 7.4126 11.9875 7.4126ZM14.0874 5.3125L15.8999 5.3125C16.325 5.3125 16.7625 5.3374 17.175 5.38745C17.0625 4.2876 16.125 3.4375 15 3.4375C13.875 3.4375 12.95 4.2876 12.825 5.38745C13.25 5.3374 13.6626 5.3125 14.0874 5.3125Z" fill="#FFFFFF" fill-opacity="1.000000" fill-rule="nonzero"/>
	<path id="Vector" d="M18.75 14.6875L11.25 14.6875C10.7375 14.6875 10.3125 14.2625 10.3125 13.75C10.3125 13.2375 10.7375 12.8125 11.25 12.8125L18.75 12.8125C19.2625 12.8125 19.6875 13.2375 19.6875 13.75C19.6875 14.2625 19.2625 14.6875 18.75 14.6875Z" fill="#FFFFFF" fill-opacity="1.000000" fill-rule="nonzero"/>
	<g opacity="0.000000"/>
</svg>
