<svg width="143.887695" height="128.000000" viewBox="0 0 143.888 128" fill="none" xmlns="http://www.w3.org/2000/svg" xmlns:xlink="http://www.w3.org/1999/xlink">
	<desc>
			Created with Pixso.
	</desc>
	<defs/>
	<path id="Path 11" d="M92.8223 0L143.888 29.473L125.344 40.2437L118.06 36.0469C118.039 32.2039 118.06 26.7542 118.003 26.0377C117.985 25.7811 117.907 25.5322 117.775 25.3118C117.643 25.0912 117.46 24.9054 117.241 24.7698L109.867 20.4863C110.167 20.0276 108.785 22.156 112.783 15.9897C112.989 15.6226 113.044 15.1893 112.935 14.7826C112.825 14.376 112.562 14.028 112.199 13.8132L90.5137 1.34912L92.8223 0ZM122.157 42.0963L118.087 44.4613C118.087 44.1405 118.087 39.4222 118.087 39.746L122.169 42.0963L122.157 42.0963ZM74.4141 35.3395C64.7344 41.5652 57.5518 50.9961 54.123 61.9824L41.7363 54.8301L53.1719 35.0457L56.9609 38.0704C57.2432 38.2913 57.5908 38.4102 57.9492 38.4075C58.3066 38.4047 58.6523 38.2805 58.9307 38.0554C59.8301 37.3629 62.1533 33.9337 66.5723 30.0099L66.5723 29.9916C66.749 29.8207 66.8887 29.6145 66.9824 29.3864C67.0752 29.1581 67.1191 28.9132 67.1113 28.6669L66.4307 20.7981L83.167 11.1454C83.0801 12.3773 82.666 18.214 82.6875 17.8842C82.6807 18.1306 82.7295 18.3755 82.8301 18.6003C82.9316 18.8252 83.082 19.0239 83.2705 19.1825C83.46 19.3411 83.6816 19.4548 83.9209 19.5155C84.1592 19.5762 84.4092 19.582 84.6504 19.5327C86.9707 19.0125 89.3457 18.7869 91.7217 18.8612C92.0381 18.8901 92.3555 18.8229 92.6318 18.6676C92.9092 18.5125 93.1318 18.2769 93.2715 17.9922L97.7207 9.25684L109.139 15.741C108.626 16.5293 103.557 24.3173 103.803 23.9365C103.627 24.2047 103.535 24.5197 103.541 24.8405C103.546 25.1613 103.647 25.473 103.833 25.7351C105.164 27.694 106.167 29.8566 106.804 32.1381C106.875 32.38 107.002 32.6013 107.176 32.7847C107.349 32.9679 107.563 33.1079 107.801 33.1926C108.038 33.2773 108.293 33.3046 108.543 33.2725C108.793 33.2402 109.032 33.1495 109.24 33.0074L114.831 29.1854C114.861 38.3942 114.885 46.7395 114.885 46.3348L97.499 56.431C98.0068 54.0327 98.2734 51.5894 98.293 49.1378C98.2812 34.2125 87.4268 27.8364 74.4141 35.3395ZM62.8633 29.1104C61.0039 30.7852 59.292 32.6177 57.7471 34.5872L53.7148 31.3824C53.7148 31.3824 53.6787 31.3827 53.6611 31.3557L53.5322 31.2537L47.0059 27.4615C48.4941 25.774 50.0674 24.1632 51.7188 22.6354L62.8633 29.1104ZM52.582 14.6827L63.2383 20.876L63.6611 25.8789L53.002 19.6857L52.582 14.6827ZM50.5371 33.2113L38.9697 53.2325L27.6836 46.6974L39.2422 26.6404L50.5371 33.2113ZM113.435 26.2595L109.195 29.1583C108.632 27.6373 107.918 26.1764 107.064 24.7969L108.119 23.175L113.435 26.2595ZM83.6797 1.09741L94.9629 7.65002L90.9004 15.6001C89.2715 15.6176 87.6455 15.7437 86.0322 15.9778C86.0479 15.7769 86.5781 8.43555 86.5928 8.23767C86.5762 7.97681 86.501 7.72302 86.374 7.49451C86.2471 7.26599 86.0713 7.06812 85.8584 6.91565C85.5381 6.70581 81.584 4.37988 81.9053 4.59277L83.6797 1.09741ZM70.9482 1.92151L81.8057 8.23181L64.7734 18.0638L53.9307 11.7689L70.9482 1.92151ZM0 30.6692L49.3896 0.0183105L58.5947 5.36597L49.875 10.3988C49.6396 10.5704 49.4502 10.7965 49.3213 11.0575C49.1934 11.3186 49.1299 11.6068 49.1377 11.8977L49.8213 20.0154C47.8447 21.8528 45.9766 23.8025 44.2246 25.8547L39.4639 23.0851C39.2822 22.9792 39.0811 22.9106 38.8721 22.8827C38.6641 22.8549 38.4521 22.8683 38.248 22.9226C38.0449 22.9769 37.8545 23.071 37.6875 23.1992C37.5205 23.3274 37.3809 23.4871 37.2754 23.6694L24.9199 45.1119L0 30.6692ZM0.0693359 55.9513L18.5889 45.1898C70.8525 75.3342 -32.5332 15.657 67.8994 73.6346L49.3623 84.4082L0.0693359 55.9513ZM69.3418 128L20.0332 99.5461L20.1172 71.2155L48.5684 87.6396C48.8115 87.7802 49.0869 87.854 49.3682 87.854C49.6494 87.854 49.9258 87.7802 50.1689 87.6396L69.4854 76.4102C69.4375 93.3499 69.3721 116.753 69.3418 128ZM123.561 98.3022L72.5371 127.979C72.5732 115.035 72.6689 80.4991 72.6807 76.4193L92.0068 87.6514C92.251 87.7921 92.5283 87.8665 92.8105 87.8665C93.0928 87.8665 93.3691 87.7921 93.6133 87.6514L123.647 70.1931L123.561 98.3022ZM143.743 54.8063L92.8311 84.3961L74.2852 73.6226L125.344 43.9457L143.888 54.7222L143.852 54.7434L143.743 54.8063Z" fill="#363C13" fill-opacity="1.000000" fill-rule="nonzero"/>
	<path id="Path 12" d="M143.743 54.8059L143.839 54.7493L143.731 54.8118L143.743 54.8059Z" fill="#363C13" fill-opacity="1.000000" fill-rule="nonzero"/>
</svg>
