<svg width="86.140625" height="128.000000" viewBox="0 0 86.1406 128" fill="none" xmlns="http://www.w3.org/2000/svg" xmlns:xlink="http://www.w3.org/1999/xlink">
	<desc>
			Created with Pixso.
	</desc>
	<defs/>
	<path id="Vector" d="M29.085 76.9001L29.1963 127.666C31.7295 128.111 34.4287 128.111 36.9619 127.666L36.8506 76.8723C34.29 77.2899 31.6455 77.2899 29.085 76.9001Z" fill="#363C13" fill-opacity="1.000000" fill-rule="nonzero"/>
	<path id="Vector" d="M19.9277 73.0872L20.0391 121.098C20.0391 122.795 21.291 124.438 23.5459 125.745C24.4082 126.246 25.3828 126.636 26.4131 126.97L26.3008 76.3156C23.9326 75.6265 21.8037 74.7079 19.9277 73.0872Z" fill="#363C13" fill-opacity="1.000000" fill-rule="nonzero"/>
	<path id="Vector" d="M26.7744 63.7635C27.3594 63.4293 27.999 63.1511 28.7227 62.9563L28.7227 60.9524C26.8027 61.2864 24.9932 61.8987 23.4629 62.7615C18.9941 65.3778 18.46 69.2007 23.4072 72.1687C28.6396 75.2025 37.1279 75.2025 42.3887 72.1687C49.1553 68.3016 45.6973 62.4758 37.0723 60.8967L37.0723 62.9285C39.3213 63.5114 41.7207 65.207 41.7207 67.4651C41.7207 72.514 31.6943 73.994 26.7471 71.1667C23.1387 69.0267 23.3838 65.7416 26.7744 63.7635Z" fill="#363C13" fill-opacity="1.000000" fill-rule="nonzero"/>
	<path id="Vector" d="M31.8125 11.5782C34.6797 13.1865 35.3711 14.2141 36.0703 16.2262C36.9434 18.2888 37.0635 18.5459 40.1348 18.4806C43.8135 18.3131 44.8721 18.8558 47.3145 21.375C49.5488 23.6748 49.8018 23.377 51.4619 23.045C52.4082 22.8224 53.4658 22.5718 54.6064 22.9058C56.7021 23.5563 57.4941 25.7561 58.3369 26.9136C59.6719 28.7506 62.4004 29.7246 65.2949 29.3628C67.3545 29.1124 70.0537 27.832 72.3359 26.6632L31.9238 3.14502C30.5039 3.45117 29.2236 4.48096 28.751 5.87256C27.8438 8.5426 29.5176 10.3027 31.8125 11.5782Z" fill="#363C13" fill-opacity="1.000000" fill-rule="nonzero"/>
	<path id="Vector" d="M78.542 34.1222C73.6279 36.9386 69.5801 44.0179 69.5801 49.569C69.5801 54.6902 72.8945 56.4023 77.2061 53.9387C82.1328 51.0719 86.1406 44.1139 86.1406 38.4362C86.0791 33.0874 82.5957 31.5897 78.542 34.1222Z" fill="#363C13" fill-opacity="1.000000" fill-rule="nonzero"/>
	<path id="Vector" d="M45.9785 73.0034C45.9502 73.0312 45.9502 73.0312 45.9502 73.0312C44.0479 74.6859 42.0898 75.5645 39.6328 76.2599L39.7441 126.97C40.7178 126.636 41.6641 126.246 42.5273 125.745C44.8369 124.437 46.0898 122.739 46.0898 121.014C46.0781 116.102 46.1309 138.797 45.9785 73.0034Z" fill="#363C13" fill-opacity="1.000000" fill-rule="nonzero"/>
	<path id="Vector" d="M75.2021 28.3053L74.9795 28.4166C72.1406 29.9196 68.6338 31.7565 65.6279 32.1461C62.0566 32.5663 58.2012 31.4949 56.082 28.528C54.1992 26.08 54.873 25.0796 52.1016 25.7448C48.8945 26.5145 47.6357 25.704 45.3105 23.3234C43.3984 21.2695 42.9717 21.1643 40.2451 21.236C36.4902 21.4237 34.8105 20.702 33.4824 17.2281C32.9102 15.6763 32.6133 15.2095 30.4482 13.9996C26.0352 11.4363 25.0537 8.12744 26.1348 4.95422C26.6357 3.479 27.665 2.28223 28.9736 1.44739L27.248 0.445435C26.7188 0.13916 26.1064 0 25.4385 0C21.6123 0 17.6221 4.18396 15.6699 7.51477L6.29004 1.89258C4.98242 1.14124 3.42383 1.16895 2.11523 1.92041C0.834961 2.672 0.0556641 4.03577 0.0556641 5.51074L0 22.5997C0 25.0768 1.33594 27.3868 3.47852 28.6392L29.4463 43.6407C30.7266 44.3644 31.5342 45.756 31.5342 47.2589C31.5332 47.5288 31.5039 61.7458 31.5059 60.8409L31.4922 65.1619C28.5 65.5852 26.918 66.6556 27.0273 67.6707C27.3428 70.5898 38.9375 70.2665 38.9375 67.465C38.9375 66.217 35.6787 65.3053 34.2891 65.155L34.2891 60.5627L34.3174 47.2589C34.3174 44.754 32.9814 42.444 30.8379 41.2194L4.87012 26.2178C3.5625 25.4943 2.7832 24.0748 2.7832 22.5997L2.83887 5.53857C2.83887 4.81494 3.31152 4.45312 3.53516 4.31396C3.72949 4.20276 4.28613 3.95215 4.92676 4.31396L14.3896 9.99182C13.4375 12.0985 12.8311 14.3314 12.8311 16.6158C12.8311 19.0094 13.6104 20.8463 14.9453 21.5978L67.0195 51.8512C65.7051 45.5439 70.2939 35.6912 77.123 31.7008C77.874 31.2833 78.5977 30.9493 79.3213 30.6989L75.2021 28.3053Z" fill="#363C13" fill-opacity="1.000000" fill-rule="nonzero"/>
</svg>
