<svg width="32.000000" height="32.000000" viewBox="0 0 32 32" fill="none" xmlns="http://www.w3.org/2000/svg" xmlns:xlink="http://www.w3.org/1999/xlink">
	<desc>
			Created with Pixso.
	</desc>
	<defs/>
	<path id="Vector" d="M23.2668 30.3331C21.76 30.3331 20.1733 29.9731 18.5334 29.2798C16.9333 28.5999 15.3201 27.6665 13.7468 26.5332C12.1868 25.3865 10.6802 24.1064 9.25342 22.7065C7.84009 21.2798 6.56006 19.7732 5.42676 18.2266C4.28003 16.6265 3.36011 15.0265 2.70679 13.4799C2.01343 11.8265 1.66675 10.2266 1.66675 8.71985C1.66675 7.67981 1.85352 6.69312 2.21338 5.77319C2.58667 4.82654 3.18677 3.94653 4 3.18652C5.02686 2.17322 6.2002 1.6665 7.45337 1.6665C7.97339 1.6665 8.50684 1.7865 8.95996 1.99988C9.47998 2.23987 9.92017 2.59985 10.24 3.07983L13.3335 7.43982C13.6135 7.82654 13.8267 8.19983 13.9734 8.57312C14.1467 8.97314 14.24 9.37317 14.24 9.75989C14.24 10.2665 14.0935 10.7599 13.8135 11.2266C13.6135 11.5865 13.3066 11.9731 12.9202 12.3599L12.0134 13.3065C12.0269 13.3466 12.04 13.3732 12.0535 13.3998C12.2134 13.6798 12.5334 14.1598 13.1467 14.8799C13.8 15.6265 14.4133 16.3065 15.0269 16.9332C15.8135 17.7065 16.4668 18.3198 17.0801 18.8265C17.8401 19.4666 18.3335 19.7865 18.6267 19.9332L18.6001 19.9999L19.5735 19.0398C19.9868 18.6265 20.3867 18.3198 20.7734 18.1199C21.5068 17.6665 22.4402 17.5865 23.3735 17.9731C23.72 18.1199 24.0935 18.3198 24.4934 18.5999L28.9202 21.7465C29.4133 22.0798 29.7734 22.5065 29.9868 23.0132C30.1868 23.5198 30.28 23.9865 30.28 24.4531C30.28 25.0931 30.1333 25.7332 29.8535 26.3331C29.5735 26.9332 29.2268 27.4531 28.7869 27.9332C28.0269 28.7732 27.2002 29.3732 26.24 29.7599C25.3201 30.1332 24.3201 30.3331 23.2668 30.3331ZM7.45337 3.6665C6.71997 3.6665 6.04004 3.98645 5.38672 4.62646C4.77344 5.19983 4.34668 5.82654 4.08008 6.50647C3.80005 7.19983 3.66675 7.93323 3.66675 8.71985C3.66675 9.95984 3.95996 11.3065 4.54663 12.6931C5.14673 14.1064 5.98682 15.5731 7.05347 17.0398C8.12012 18.5065 9.3335 19.9332 10.6667 21.2798C12 22.5999 13.4402 23.8265 14.9202 24.9065C16.3601 25.9598 17.8401 26.8132 19.3066 27.4265C21.5867 28.3998 23.72 28.6265 25.48 27.8932C26.1602 27.6132 26.76 27.1865 27.3066 26.5731C27.6135 26.2399 27.8535 25.8799 28.0535 25.4531C28.2134 25.1199 28.2935 24.7732 28.2935 24.4265C28.2935 24.2131 28.2534 23.9999 28.1467 23.7599C28.1067 23.6798 28.0269 23.5332 27.7734 23.3599L23.3467 20.2131C23.0801 20.0265 22.8401 19.8932 22.6135 19.7998C22.3201 19.6798 22.2002 19.5598 21.7468 19.8398C21.48 19.9731 21.24 20.1732 20.9734 20.4398L19.96 21.4398C19.4402 21.9465 18.6401 22.0665 18.0269 21.8398L17.6667 21.6798C17.1201 21.3865 16.48 20.9332 15.7734 20.3331C15.1333 19.7865 14.4402 19.1465 13.6001 18.3198C12.9468 17.6532 12.2935 16.9465 11.6135 16.1598C10.9868 15.4265 10.5334 14.7998 10.2534 14.2798L10.0935 13.8799C10.0134 13.5731 9.98682 13.3998 9.98682 13.2131C9.98682 12.7332 10.1602 12.3065 10.4934 11.9731L11.4934 10.9332C11.76 10.6665 11.96 10.4132 12.0935 10.1865C12.2002 10.0132 12.24 9.86646 12.24 9.73315C12.24 9.62646 12.2002 9.46655 12.1333 9.30652C12.04 9.09314 11.8933 8.85315 11.7068 8.59985L8.61353 4.22656C8.47998 4.03979 8.32007 3.90649 8.12012 3.81311C7.90674 3.71985 7.68018 3.6665 7.45337 3.6665ZM18.6001 20.0132L18.3867 20.9198L18.7468 19.9865C18.6802 19.9731 18.6267 19.9865 18.6001 20.0132Z" fill="#FFFFFF" fill-opacity="1.000000" fill-rule="nonzero"/>
	<g opacity="0.000000"/>
</svg>
