<svg width="32.000000" height="32.000000" viewBox="0 0 32 32" fill="none" xmlns="http://www.w3.org/2000/svg" xmlns:xlink="http://www.w3.org/1999/xlink">
	<desc>
			Created with Pixso.
	</desc>
	<defs/>
	<rect id="clock" width="32.000000" height="32.000000" fill="#FFFFFF" fill-opacity="0"/>
	<path id="Vector" d="M16 30.3333C8.09351 30.3333 1.66675 23.9065 1.66675 15.9999C1.66675 8.09314 8.09351 1.6665 16 1.6665C23.9067 1.6665 30.3335 8.09314 30.3335 15.9999C30.3335 23.9065 23.9067 30.3333 16 30.3333ZM16 3.6665C9.2002 3.6665 3.66675 9.19983 3.66675 15.9999C3.66675 22.7998 9.2002 28.3333 16 28.3333C22.8 28.3333 28.3335 22.7998 28.3335 15.9999C28.3335 9.19983 22.8 3.6665 16 3.6665Z" fill="#FFFFFF" fill-opacity="1.000000" fill-rule="nonzero"/>
	<path id="Vector" d="M20.9468 21.2397C20.7734 21.2397 20.6001 21.2 20.4399 21.0933L16.3066 18.6265C15.28 18.0132 14.52 16.6665 14.52 15.4799L14.52 10.0132C14.52 9.46655 14.9734 9.01318 15.52 9.01318C16.0667 9.01318 16.52 9.46655 16.52 10.0132L16.52 15.4799C16.52 15.9598 16.9199 16.6665 17.3333 16.9065L21.4668 19.3733C21.9468 19.6531 22.0933 20.2666 21.8132 20.7466C21.6133 21.0664 21.28 21.2397 20.9468 21.2397Z" fill="#FFFFFF" fill-opacity="1.000000" fill-rule="nonzero"/>
	<g opacity="0.000000"/>
</svg>
