<svg width="143.231689" height="169.792969" viewBox="0 0 143.232 169.793" fill="none" xmlns="http://www.w3.org/2000/svg" xmlns:xlink="http://www.w3.org/1999/xlink">
	<desc>
			Created with Pixso.
	</desc>
	<defs/>
	<path id="Vector" d="M45.1724 52.0612L26.4504 41.1438C20.6931 49.0555 15.7183 57.5645 11.6836 66.3097L30.4038 77.2151C34.4287 68.5612 39.3621 60.0369 45.1724 52.0612Z" fill="#30312A" fill-opacity="1.000000" fill-rule="nonzero"/>
	<path id="Vector" d="M51.291 44.1105C56.1196 38.2439 61.8293 32.4302 68.0051 27.3291L49.5017 16.55C41.699 22.7676 34.7749 30.1765 28.6504 38.1531L47.3643 49.0656C48.6699 47.3508 49.9719 45.7019 51.291 44.1105Z" fill="#30312A" fill-opacity="1.000000" fill-rule="nonzero"/>
	<path id="Vector" d="M28.894 80.6101L10.1519 69.6919C6.05005 79.214 3.07397 88.9374 1.44287 98.3766L20.0029 109.205C21.8728 99.3462 24.8323 89.95 28.894 80.6101Z" fill="#30312A" fill-opacity="1.000000" fill-rule="nonzero"/>
	<path id="Vector" d="M112.857 9.19226C112.882 9.1936 112.906 9.19482 112.93 9.19617L103.982 3.98486C96.4749 -0.365723 87.9392 -0.833496 79.4438 1.04443L96.8525 11.2031C101.946 9.7085 107.556 8.85547 112.857 9.19226Z" fill="#30312A" fill-opacity="1.000000" fill-rule="nonzero"/>
	<path id="Vector" d="M92.2107 12.7675L74.4719 2.41675C70.238 3.80334 65.874 5.76331 61.4263 8.34338C58.4243 10.0836 55.5352 12.059 52.7009 14.1385L71.1267 24.8724C77.5222 19.9764 84.5454 15.6882 92.2107 12.7675Z" fill="#30312A" fill-opacity="1.000000" fill-rule="nonzero"/>
	<path id="Vector" d="M19.3274 113.083L0.865234 102.312C-0.344971 111.349 -0.436523 119.939 1.56714 128.978L19.0647 139.179C17.9802 131.152 17.9912 121.987 19.3274 113.083Z" fill="#30312A" fill-opacity="1.000000" fill-rule="nonzero"/>
	<path id="Vector" d="M2.93994 134.054C5.79492 142.676 10.6582 149.252 17.353 153.151L24.6968 157.439C22.3333 153.226 20.8342 148.559 19.8682 143.923L2.93994 134.054Z" fill="#30312A" fill-opacity="1.000000" fill-rule="nonzero"/>
	<path id="Vector" d="M125.811 16.702C102.807 3.45984 71.6367 25.4993 54.2517 46.3268C54.2144 46.3719 54.1746 46.4156 54.137 46.4609C45.5066 56.8799 37.5474 69.6836 31.8401 83.097C26.9463 94.5986 23.3154 107.254 22.2737 119.813C21.0881 133.967 22.8308 152.622 33.1257 162.415C46.5168 175.131 68.8376 169.101 81.9041 161.551C103.524 149.069 123.789 123.985 134.792 96.0879C140.387 81.1084 143.232 67.342 143.232 55.2017C143.181 36.8116 136.995 23.1372 125.811 16.702ZM83.6853 143.782C57.6958 158.771 36.6162 146.034 36.5056 116.833C36.4316 88.2223 56.6252 53.2618 81.5442 38.9011C107.238 24.0607 128.576 36.3538 128.687 65.7397C128.761 94.3873 108.567 129.385 83.6853 143.782Z" fill="#30312A" fill-opacity="1.000000" fill-rule="nonzero"/>
	<path id="Vector" d="M88.5022 62.7096C88.1316 62.9236 74.2839 70.9591 74.6541 70.7245C74.1436 71.0479 73.7727 71.6637 73.7751 72.2633L73.7751 72.2847L73.8398 94.9542C73.8398 94.9644 73.8474 94.9724 73.8477 94.9823L73.8887 107.86L64.9497 113.021C64.0664 113.532 63.7634 114.66 64.2754 115.543C64.7778 116.422 65.907 116.729 66.7954 116.219L73.9021 112.116L73.9265 119.707C73.9302 120.726 74.7556 121.548 75.7722 121.548C75.7759 121.548 75.7759 121.548 75.7795 121.548C76.7961 121.544 77.6218 120.715 77.6182 119.696L77.5872 109.988L88.3003 103.803C89.1836 103.293 89.4863 102.165 88.9744 101.281C88.4661 100.394 87.334 100.093 86.4543 100.605L77.5735 105.733L77.5425 96.0084L90.4128 88.5767C96.4624 85.0814 101.189 76.8977 101.167 69.9434C101.145 62.2845 95.2139 58.8417 88.5022 62.7096ZM88.5671 85.3789L77.5288 91.7517L77.4709 73.6198L77.4702 73.343L90.3479 65.9073C94.4507 63.5453 97.4602 65.0077 97.4753 69.9541C97.4897 75.517 93.4124 82.5813 88.5671 85.3789Z" fill="#30312A" fill-opacity="1.000000" fill-rule="nonzero"/>
</svg>
