<svg width="32.000000" height="32.000000" viewBox="0 0 32 32" fill="none" xmlns="http://www.w3.org/2000/svg" xmlns:xlink="http://www.w3.org/1999/xlink">
	<desc>
			Created with Pixso.
	</desc>
	<defs/>
	<path id="Vector" d="M21.3333 30.3334L10.6667 30.3334C3 30.3334 3 26.2667 3 22.6666L3 21.3334C3 18.36 3 15 9.33325 15C10.9199 15 11.5066 15.3867 12.3333 16C12.3733 16.04 12.4268 16.0667 12.4666 16.12L13.8267 17.5601C14.9734 18.7733 17.0532 18.7733 18.2 17.5601L19.5601 16.12C19.6001 16.08 19.6399 16.04 19.6934 16C20.52 15.3733 21.1067 15 22.6934 15C29.0266 15 29.0266 18.36 29.0266 21.3334L29.0266 22.6666C29 27.76 26.4268 30.3334 21.3333 30.3334ZM9.33325 17C5 17 5 18.36 5 21.3334L5 22.6666C5 26.3199 5 28.3334 10.6667 28.3334L21.3333 28.3334C25.3066 28.3334 27 26.64 27 22.6666L27 21.3334C27 18.36 27 17 22.6667 17C21.7065 17 21.5066 17.12 20.9333 17.5466L19.6399 18.92C18.6799 19.9333 17.3867 20.4933 16 20.4933C14.6133 20.4933 13.3201 19.9333 12.3601 18.92L11.0667 17.5466C10.4934 17.12 10.2932 17 9.33325 17Z" fill="#FFFFFF" fill-opacity="1.000000" fill-rule="nonzero"/>
	<path id="Vector" d="M25.3335 16.9999C24.7869 16.9999 24.3335 16.5465 24.3335 15.9999L24.3335 7.99988C24.3335 5.02649 24.3335 3.6665 20 3.6665L12 3.6665C7.66675 3.6665 7.66675 5.02649 7.66675 7.99988L7.66675 15.9999C7.66675 16.5465 7.21338 16.9999 6.66675 16.9999C6.12012 16.9999 5.66675 16.5465 5.66675 15.9999L5.66675 7.99988C5.66675 5.02649 5.66675 1.6665 12 1.6665L20 1.6665C26.3335 1.6665 26.3335 5.02649 26.3335 7.99988L26.3335 15.9999C26.3335 16.5465 25.8801 16.9999 25.3335 16.9999Z" fill="#FFFFFF" fill-opacity="1.000000" fill-rule="nonzero"/>
	<path id="Vector" d="M18.5066 13.3066L14.0667 13.3066C13.52 13.3066 13.0667 12.8533 13.0667 12.3066C13.0667 11.76 13.52 11.3066 14.0667 11.3066L18.5066 11.3066C19.0532 11.3066 19.5066 11.76 19.5066 12.3066C19.5066 12.8533 19.0667 13.3066 18.5066 13.3066Z" fill="#FFFFFF" fill-opacity="1.000000" fill-rule="nonzero"/>
	<path id="Vector" d="M19.6267 9.30664L12.96 9.30664C12.4133 9.30664 11.96 8.85327 11.96 8.30664C11.96 7.76001 12.4133 7.30664 12.96 7.30664L19.6267 7.30664C20.1733 7.30664 20.6267 7.76001 20.6267 8.30664C20.6267 8.85327 20.1865 9.30664 19.6267 9.30664Z" fill="#FFFFFF" fill-opacity="1.000000" fill-rule="nonzero"/>
	<g opacity="0.000000"/>
</svg>
