<svg width="84.000000" height="78.971680" viewBox="0 0 84 78.9717" fill="none" xmlns="http://www.w3.org/2000/svg" xmlns:xlink="http://www.w3.org/1999/xlink">
	<desc>
			Created with Pixso.
	</desc>
	<defs/>
	<path id="Vector" d="M60.9023 66.5042C61.3655 68.98 61.811 71.4058 62.2742 73.8315C62.3276 74.116 62.2742 74.2332 61.989 74.3501C59.6731 75.2534 57.3748 76.157 55.0767 77.0938C54.7915 77.2109 54.6667 77.1775 54.4888 76.9431C52.4578 74.2666 50.4268 71.6233 48.3958 68.9465C48.271 68.7793 48.1462 68.7292 47.9502 68.7627C46.6853 68.9299 45.4026 69.1475 44.1199 69.2478C41.7683 69.4319 39.4343 69.3816 37.1006 68.98C36.7798 68.9299 36.584 68.98 36.3879 69.2478C34.4104 71.9243 32.415 74.5845 30.4197 77.2444C30.2949 77.4282 30.188 77.5454 29.9031 77.4282C27.5334 76.5083 25.1641 75.6047 22.7766 74.7014C22.563 74.6179 22.4917 74.5173 22.5273 74.3167C22.8657 72.4597 23.2043 70.6196 23.5249 68.7627C23.6497 68.0266 23.7744 67.2905 23.917 66.5376C23.4714 66.5042 23.0618 66.4707 22.6521 66.4541C22.6165 66.6379 22.5808 66.7886 22.5452 66.9392C22.0642 69.6492 21.6008 72.3428 21.1021 75.0527C21.0486 75.3037 21.1199 75.3875 21.3516 75.4878C24.3445 76.6252 27.3376 77.7629 30.3127 78.9172C30.5801 79.0176 30.7046 78.9841 30.865 78.7666C32.896 76.0229 34.9626 73.2795 36.9937 70.5359C37.1719 70.3018 37.3499 70.2683 37.6172 70.3018C38.1338 70.3687 38.6682 70.4521 39.1851 70.4858C41.8931 70.6531 44.5833 70.6028 47.2554 70.1345C47.5762 70.0842 47.7188 70.168 47.8792 70.3853C49.9277 73.0789 51.9944 75.7722 54.0432 78.4656C54.1858 78.6497 54.2927 78.7166 54.542 78.616C57.5173 77.4282 60.5103 76.2405 63.4856 75.0696C63.6995 74.9858 63.7529 74.8855 63.7173 74.6514C63.343 72.7275 63.0046 70.8035 62.6482 68.863C62.5056 68.0432 62.3455 67.2402 62.1851 66.4038C61.7576 66.4373 61.3477 66.4707 60.9023 66.5042Z" fill="#FFFFFF" fill-opacity="1.000000" fill-rule="nonzero"/>
	<path id="Vector" d="M78.3975 57.655C78.5579 57.6716 78.6648 57.655 78.7715 57.6716C79.395 57.7554 79.395 57.7554 79.6445 57.1865C80.5532 55.0955 81.4438 53.0042 82.3704 50.9131C82.4773 50.6621 82.4595 50.5449 82.21 50.3777C79.6089 48.6714 77.0256 46.9482 74.4246 45.2419C74.3354 45.175 74.2463 45.1248 74.175 45.175C73.7832 45.292 73.3914 45.3926 72.9993 45.5264C72.8745 45.5598 72.8032 45.6768 72.6965 45.7605C72.7856 45.8442 72.8567 45.9446 72.9636 45.9946C73.3379 46.1621 73.7654 46.1621 74.0327 46.5469C74.282 46.9148 74.104 47.2495 73.9792 47.5671C73.9258 47.7178 73.5693 47.835 73.3379 47.8684C73.0527 47.9185 72.7676 47.885 72.3936 47.885C72.6609 48.1528 72.9102 48.3704 73.1062 48.6045C73.3735 48.9055 73.5872 49.2402 73.3735 49.6584C73.0706 50.2607 73.2488 50.1436 72.554 50.1436C72.3401 50.1436 72.144 50.1267 71.9482 50.1101C72.0552 50.5449 72.1797 50.9465 72.251 51.3647C72.3044 51.6826 71.877 52.1177 71.5383 52.1177C71.2891 52.1177 71.0574 52.1177 70.79 52.1177C70.7546 52.3684 70.719 52.6028 70.6833 52.8538C67.7437 52.8538 64.8042 52.8538 61.811 52.8538C61.7754 52.519 61.7397 52.1846 61.7219 51.8499C61.3657 51.7664 60.9736 51.7495 60.6709 51.5989C60.4749 51.4985 60.3857 51.1975 60.2075 50.9465C59.8335 50.8628 59.5662 50.3276 59.7444 49.9094C59.8157 49.7253 59.9048 49.5413 60.0295 49.3906C60.1543 49.2402 60.3323 49.123 60.564 48.939C60.1187 48.9224 59.7622 48.9055 59.4417 48.8889C59.3882 48.3704 59.3347 47.9019 59.2634 47.4167C59.2456 47.333 59.1565 47.2495 59.0852 47.1489C58.6399 47.8516 58.2656 48.5208 57.8381 49.1399C57.3928 49.7754 56.8584 50.3442 56.395 50.98C56.1636 51.2979 56.0745 51.6826 55.8784 52.0339C55.825 52.1343 55.6646 52.2515 55.5754 52.2515C55.1658 52.1846 54.8809 52.3853 54.667 52.6697C54.5066 52.8872 54.3105 52.9038 54.0791 52.9038C52.0659 52.9038 50.0706 52.9038 48.0574 52.9038C44.9575 52.9038 41.8574 52.9038 38.7576 52.9038C38.5972 52.9038 38.3479 52.8872 38.3123 52.8035C38.2053 52.5525 38.1162 52.2849 38.1519 52.0171C38.1875 51.7495 38.3655 51.4985 38.4902 51.2476C38.5793 51.0803 38.5437 50.9634 38.3655 50.8962C38.2588 50.8462 38.1519 50.7793 38.0449 50.7458C37.8132 50.6621 37.7241 50.5115 37.7241 50.2607C37.6887 49.374 37.6885 49.374 36.7622 49.374C35.7288 49.374 34.6956 49.374 33.6624 49.374C33.5732 49.374 33.502 49.3906 33.3416 49.3906C33.6089 49.7588 33.4485 50.0767 33.2881 50.4111C33.199 50.5952 33.0742 50.6956 32.8428 50.679C32.522 50.6621 32.1836 50.679 31.8806 50.679C31.9875 51.0803 32.0945 51.4651 32.1658 51.8499C32.2192 52.1677 31.7915 52.5859 31.3997 52.6528C31.4709 52.7197 31.5244 52.7866 31.5957 52.8704C31.5422 52.8872 31.5066 52.9038 31.4709 52.9038C27.1238 52.9038 22.7947 52.9038 18.4478 52.8872C18.2874 52.8872 18.0735 52.77 17.9666 52.6528C17.0938 51.6995 16.5059 50.5952 16.2029 49.3906C16.1494 49.1565 16.0425 49.0393 15.7932 49.0896C15.7041 49.1064 15.615 49.0896 15.5437 49.0896C14.8845 49.0728 14.5815 48.7383 14.7241 48.1194C14.8489 47.5671 14.9915 47.0151 15.1162 46.4631C15.134 46.3962 15.134 46.3293 15.1519 46.229C14.6885 46.229 14.2253 46.229 13.7444 46.229C13.7622 46.0115 13.78 45.8608 13.7979 45.6602C13.2632 45.6267 12.7466 45.6099 12.2122 45.5764C12.0339 45.5764 11.8381 45.6099 11.6599 45.5598C10.8582 45.3757 10.2703 45.6936 9.64673 46.1284C7.13477 47.8516 4.60498 49.5581 2.07495 51.2476C1.82568 51.415 1.80786 51.5488 1.93262 51.783C2.89453 53.9077 3.85669 56.0488 4.80078 58.1902C4.94336 58.5081 5.10376 58.6921 5.47778 58.5583C5.58472 58.5249 5.69165 58.5249 5.85205 58.4915C5.85205 58.8594 5.86987 59.2107 5.83423 59.562C5.83423 59.6289 5.65601 59.7292 5.54907 59.7627C5.12158 59.8464 4.67603 59.9133 4.21289 59.9802C4.08813 59.7292 3.96338 59.4617 3.85669 59.2107C2.68066 56.5342 1.52271 53.9243 0.329102 51.3145C0.204346 51.0469 0.257812 50.9131 0.507324 50.7625C3.21533 48.9558 5.92334 47.1155 8.6311 45.292C8.70239 45.2419 8.7915 45.175 8.84497 45.1416C8.80933 44.9741 8.73804 44.8237 8.73804 44.6565C8.73804 43.686 8.72021 42.7158 8.73804 41.7456C8.73804 41.6116 8.86279 41.4946 8.89844 41.3608C8.93408 41.2771 8.93408 41.1768 8.93408 41.093C8.93408 39.8049 8.91626 38.5168 8.9519 37.2119C8.96973 36.5427 9.07666 35.8735 9.18359 35.2212C9.21924 34.9868 9.14795 34.8699 8.9519 34.7361C6.06567 32.8457 3.19751 30.9553 0.293457 29.0815C-0.0270996 28.8809 -0.0627441 28.7134 0.0795898 28.3958C1.29126 25.6353 2.48486 22.875 3.67847 20.1147C3.7854 19.8472 3.91016 19.8135 4.19507 19.8638C6.65356 20.2485 9.1123 20.6333 11.553 21.0181C12.5151 21.1687 13.4949 21.3193 14.457 21.4866C14.7954 21.5535 15.0271 21.4866 15.2407 21.1853C17.0759 18.7261 19.2671 16.585 21.8147 14.7781C22.0642 14.594 22.1711 14.4436 22.0999 14.1257C21.4763 10.8467 20.8884 7.55103 20.2827 4.25537C20.2471 4.03809 20.3184 3.97119 20.4963 3.90405C23.4717 2.71631 26.4646 1.52856 29.4399 0.324219C29.6716 0.223877 29.7783 0.290771 29.9031 0.474609C31.9697 3.18481 34.0364 5.87817 36.0852 8.58838C36.2634 8.82251 36.4592 8.8728 36.7266 8.82251C38.615 8.47119 40.5212 8.354 42.4453 8.4043C43.7993 8.43774 45.1711 8.57153 46.5251 8.68872C46.7925 8.70532 46.8638 8.55493 46.9707 8.42114C48.4849 6.43018 49.9814 4.42285 51.4958 2.43188C52.0659 1.6792 52.636 0.92627 53.2061 0.173584C53.3308 0.00634766 53.4377 -0.0439453 53.6514 0.0397949C56.6089 1.19409 59.584 2.36499 62.5593 3.50269C62.8445 3.60303 62.8977 3.73682 62.8445 4.02124C62.4167 6.32983 62.0249 8.63843 61.6328 10.9304C61.4727 11.8337 61.3123 12.7539 61.134 13.6572C61.0806 13.9417 61.1162 14.1257 61.4192 14.3098C63.0046 15.2297 64.5369 16.2168 65.7305 17.5886C66.6035 18.5923 67.4766 19.6296 68.3315 20.6501C68.4741 20.8174 68.5811 20.8843 68.8125 20.834C71.1108 20.4326 73.427 20.0645 75.7251 19.6797C76.99 19.4622 78.2549 19.2615 79.5198 19.0273C79.7693 18.9771 79.8049 19.1277 79.8762 19.2783C80.6245 20.9512 81.3904 22.624 82.1387 24.3137C82.6733 25.5183 83.2078 26.7061 83.7778 27.9438C83.2256 28.312 82.6912 28.6799 82.1387 29.0481C79.7158 30.6875 77.293 32.3269 74.8521 33.9497C74.6206 34.1003 74.5671 34.2507 74.6206 34.5017C75.1372 37.1116 75.155 39.738 74.9768 42.3645C74.9412 42.7996 74.8877 43.2344 74.7986 43.6694C74.7454 43.9036 74.7986 44.0374 75.0125 44.188C77.9165 46.095 80.8025 48.019 83.7065 49.9094C84.0271 50.1101 84.0627 50.2773 83.9204 50.5952C82.7266 53.3054 81.5508 56.0322 80.3928 58.759C80.2681 59.0601 80.1433 59.1772 79.7871 59.0769C79.4307 58.9766 79.0566 58.9597 78.7004 58.9097C78.4866 58.8928 78.3975 58.8093 78.4153 58.6084C78.4153 58.2905 78.3975 57.9895 78.3975 57.655ZM12.7288 41.2102C12.6575 40.8923 12.5151 40.5913 12.5151 40.29C12.4973 36.8438 12.4973 33.4143 12.5151 29.9683C12.5151 29.3491 12.8535 28.8975 13.4414 28.7302C13.6731 28.6633 13.9224 28.6465 14.1719 28.6465C15.6685 28.613 17.165 28.5964 18.6792 28.5964C18.9822 28.5964 19.1604 28.5127 19.3027 28.2451C20.4431 26.1875 21.8682 24.3137 23.6143 22.6575C28.2642 18.241 33.9116 15.832 40.5034 15.4138C42.8196 15.2632 45.1533 15.397 47.4338 15.8989C55.3083 17.6221 61.1697 21.8379 64.9109 28.5796C65.4456 29.55 65.9265 30.5703 66.4075 31.5574C66.4431 31.6243 66.4253 31.6914 66.4253 31.7583C66.4609 31.9421 66.4788 32.1431 66.5322 32.3269C66.7639 33.2136 67.031 34.1003 67.2271 35.0037C67.2983 35.355 67.4587 35.4387 67.7971 35.4722C69.0442 35.5891 70.2378 35.8569 71.3425 36.4424C71.8413 36.71 72.3579 37.0112 72.5896 37.5298C72.9814 38.3831 73.6763 39.1023 73.7654 40.0725C73.7654 40.0894 73.801 40.0894 73.8367 40.1228C73.8545 38.0149 73.7119 35.9404 73.2131 33.8828C73.1597 33.6653 73.2131 33.5483 73.3914 33.4312C74.478 32.7117 75.5469 31.9756 76.6338 31.2563C78.3975 30.0686 80.1611 28.8809 81.9429 27.6763C82.0852 27.5759 82.2456 27.509 82.1387 27.2749C81.1233 25.0332 80.1255 22.7913 79.1101 20.5664C79.0745 20.4661 78.8784 20.3657 78.7715 20.3823C78.1836 20.4492 77.6135 20.5664 77.0256 20.6667C74.2107 21.1353 71.3782 21.6204 68.5632 22.0889C68.2068 22.1558 67.9397 22.0552 67.708 21.771C67.1558 21.0684 66.5322 20.3992 65.98 19.6965C64.3586 17.6052 62.2742 16.0327 59.8513 14.7949C59.78 14.7615 59.7087 14.6108 59.7266 14.5271C59.9404 13.2559 60.1721 11.9844 60.4036 10.7129C60.76 8.70532 61.1162 6.698 61.4727 4.69043C61.5259 4.42285 61.4192 4.32251 61.1697 4.22192C58.8716 3.33545 56.5554 2.44873 54.2749 1.54541C53.9722 1.42822 53.8296 1.49512 53.6514 1.72949C51.5671 4.40601 49.5361 7.08276 47.5229 9.75928C47.3982 9.90991 47.2913 9.99365 47.0774 9.96021C45.9551 9.82617 44.8328 9.67578 43.7102 9.60889C41.127 9.44141 38.5793 9.62549 36.0496 10.144C35.8179 10.1943 35.7109 10.1274 35.6042 9.96021C35.0518 9.22412 34.4817 8.48804 33.9294 7.76855C32.4329 5.81128 30.9543 3.87061 29.4578 1.91333C29.333 1.74609 29.2439 1.6792 29.0125 1.77954C26.6428 2.73315 24.2734 3.68677 21.9038 4.64014C21.8147 4.67383 21.708 4.85767 21.7258 4.94141C22.2959 8.13672 22.8838 11.3152 23.4895 14.5105C23.5608 14.9119 23.4182 15.1462 23.0977 15.3804C22.4385 15.8489 21.7793 16.3005 21.1555 16.8191C19.0713 18.5422 17.2183 20.4492 15.7041 22.6575C15.6506 22.7412 15.4724 22.825 15.3655 22.8081C11.9092 22.2727 8.47095 21.7375 5.03247 21.2021C4.76514 21.1519 4.60498 21.2021 4.48022 21.4866C3.55371 23.6614 2.60962 25.8528 1.64746 28.011C1.52271 28.312 1.57617 28.4458 1.84351 28.6299C4.62256 30.4365 7.38403 32.26 10.1633 34.0669C10.4841 34.2842 10.6086 34.552 10.5376 34.9033C10.2168 36.4758 10.1455 38.0652 10.1812 39.6543C10.1812 40.0725 10.199 40.4907 10.199 40.9089C10.199 41.093 10.2524 41.2102 10.502 41.2102C11.25 41.2102 11.9983 41.2102 12.7288 41.2102ZM41.02 45.8108C41.1626 44.439 41.6082 43.134 42.3562 41.9294C43.3718 40.29 44.5476 38.7844 46.2937 37.7473C47.4695 37.0613 48.7344 36.6265 50.124 36.71C52.0659 36.8103 53.5979 37.7139 54.8809 39.0186C55.2549 39.4033 55.5933 39.9053 55.718 40.4072C55.9319 41.2937 56.0032 42.1973 56.0745 43.1006C56.1458 43.9705 56.1458 44.8572 56.1992 45.7271C56.217 45.9446 56.3594 46.1787 56.5198 46.3293C56.5911 46.3962 56.8584 46.2791 57.0364 46.2456C57.0542 46.2456 57.0542 46.2456 57.072 46.2456C57.375 46.2456 57.4463 46.0784 57.4641 45.8108C57.5176 44.9407 57.5708 44.0542 57.6243 43.1843C57.6421 42.9834 57.6777 42.8496 57.9272 42.833C59.6375 42.6824 61.3479 42.4817 63.0581 42.3645C64.4478 42.2808 64.4656 42.3311 64.9109 41.0764C64.9287 41.043 64.9287 41.0095 64.9465 40.9761C65.3208 40.0391 65.7126 39.1023 66.3896 38.2993C67.1023 37.4629 67.9575 36.8606 69.1511 36.8271C70.2556 36.7937 71.1643 37.2622 71.9839 37.8977C72.073 37.9646 72.1619 38.0483 72.3223 38.1655C72.1797 37.6301 71.8591 37.3457 71.4849 37.0947C70.8257 36.6431 70.0776 36.3755 69.3115 36.1914C67.4053 35.7397 65.4634 35.7229 63.5212 36.0073C62.6663 36.1414 61.8289 36.342 61.0806 36.7268C60.7244 36.9109 60.4749 37.145 60.3501 37.5464C60.1008 38.45 59.3169 39.002 58.729 39.6711C58.4795 39.2361 58.23 38.8347 57.9985 38.4165C57.8916 38.2324 57.8025 38.0149 57.8025 37.8142C57.7847 36.8103 57.8025 35.8066 57.8025 34.803C57.8025 34.6858 57.7847 34.5854 57.7847 34.4851C57.4285 34.4182 57.3394 34.5352 57.3394 34.8364C57.3572 35.5056 57.3572 36.1748 57.3394 36.8438C57.3394 36.9778 57.3037 37.0947 57.2859 37.2454C56.5376 36.9944 55.8606 36.7268 55.1658 36.5261C51.8342 35.5725 48.4314 35.2881 44.9575 35.606C43.0867 35.79 41.2339 36.1077 39.4702 36.7268C39.2742 36.7937 39.0781 36.9275 38.9536 37.0947C37.8845 38.4331 36.8335 39.7881 35.7822 41.1433C35.6577 41.2937 35.533 41.4443 35.3726 41.6619C36.6018 41.6619 37.7419 41.6619 38.9358 41.6619C38.7932 43.0503 38.6328 44.4055 38.4902 45.8274C39.3455 45.8108 40.165 45.8108 41.02 45.8108ZM25.6096 45.5095C25.6096 45.426 25.6274 45.292 25.6274 45.175C25.6453 44.1377 25.6631 43.1006 25.6809 42.0635C25.6809 41.8125 25.7522 41.6953 26.0371 41.7288C26.2866 41.7456 26.5537 41.7456 26.8032 41.7456C27.3733 41.7791 27.9434 41.9128 28.4956 41.9294C30.3665 42.0132 32.2371 41.9629 34.1077 41.9629C34.4104 41.9629 34.5708 41.8625 34.749 41.645C35.9604 40.0894 37.1541 38.5168 38.4011 36.9944C38.7932 36.5093 38.7397 36.0242 38.7219 35.4722C34.0186 35.5725 29.3687 35.6729 24.6653 35.7732C24.6653 35.9404 24.6653 36.0576 24.6653 36.1914C24.6653 37.5798 24.6653 38.9685 24.6653 40.3403C24.6653 41.0764 24.113 41.595 23.3291 41.645C23.1865 41.645 23.0264 41.645 22.8838 41.645C18.804 41.645 14.7241 41.645 10.6443 41.6284C10.3772 41.6284 10.2524 41.6787 10.2524 41.9629C10.2703 42.8831 10.2703 43.7864 10.2524 44.7065C10.2524 44.9241 10.3059 45.0244 10.5554 45.0244C12.0161 45.0579 13.4771 45.0913 14.938 45.1248C15.2764 45.1248 15.5972 45.1416 15.8821 44.9072C15.989 44.8237 16.1851 44.8069 16.3276 44.7903C16.7908 44.7734 17.2361 44.7568 17.6995 44.8069C17.9131 44.8237 18.1626 44.9407 18.2874 45.0913C18.4299 45.2585 18.5723 45.3088 18.7683 45.3088C20.2114 45.3589 21.6367 45.4426 23.0798 45.4761C23.917 45.5264 24.7366 45.5095 25.6096 45.5095ZM56.7515 36.5596C56.7693 36.4758 56.7871 36.4255 56.7871 36.3921C56.7693 33.9163 56.7336 31.457 56.7158 28.9812C56.7158 28.7302 56.6089 28.6968 56.3772 28.6968C53.6335 28.6968 50.8901 28.6968 48.1643 28.6968C47.897 28.6968 47.8257 28.7805 47.8257 29.0146C47.8435 29.7339 47.8257 30.47 47.8435 31.1895C47.8435 31.457 47.7544 31.5408 47.4695 31.5408C46.2581 31.5239 45.0642 31.5408 43.8528 31.5408C43.728 31.5408 43.6035 31.5408 43.4431 31.5408C43.4431 32.8123 43.4431 34.0334 43.4431 35.3047C45.6877 35.0205 47.9326 34.9033 50.1775 35.1208C52.4043 35.3381 54.6135 35.7732 56.7515 36.5596ZM47.5764 28.6968C47.416 28.6968 47.2734 28.6968 47.1487 28.6968C46.3469 28.6968 45.5454 28.6968 44.7437 28.6968C44.5654 28.6968 44.4229 28.7134 44.4229 28.4458C44.4407 25.8696 44.4407 23.2932 44.4407 20.717C44.4407 20.4827 44.4407 20.2654 44.4407 20.0479C45.2603 19.9475 45.2603 19.9475 45.2603 19.228C45.2603 18.7932 45.2068 18.7261 44.7258 18.7261C43.9597 18.7261 43.1758 18.7261 42.4097 18.7261C41.4834 18.7261 41.5012 18.7261 41.5012 19.5962C41.5012 19.8972 41.6616 20.0144 41.9465 20.031C42.1069 20.031 42.2673 20.0479 42.4097 20.0645C42.4097 22.9084 42.4097 25.6855 42.4097 28.5127C41.2695 28.5127 40.1472 28.5127 39.0425 28.5127C39.0425 31.1226 39.0425 33.6821 39.0425 36.2751C39.4524 36.1245 39.8086 35.9238 40.1829 35.8569C41.02 35.6895 41.8752 35.5391 42.7126 35.4219C43.051 35.3716 43.1936 35.3047 43.1758 34.9368C43.158 33.866 43.2114 32.7954 43.2114 31.708C43.2114 31.4404 43.3005 31.3567 43.5857 31.3567C44.7793 31.3735 45.9729 31.3567 47.1665 31.3567C47.2913 31.3567 47.4338 31.3567 47.5764 31.3567C47.5764 30.4534 47.5764 29.6169 47.5764 28.6968ZM34.4639 17.7058C31.3105 18.676 28.5134 20.1482 26.0371 22.1558C23.8101 23.9624 21.9929 26.0703 20.532 28.613C21.8682 28.613 23.1155 28.6299 24.3625 28.613C25.1997 28.5964 26.0371 28.5461 26.8745 28.4961C27.0171 28.4792 27.1951 28.4292 27.2842 28.3455C28.1216 27.5591 28.9412 26.7729 29.7429 25.97C29.8674 25.8362 29.9744 25.6353 29.9744 25.468C30.01 24.3306 30.01 23.2097 30.0278 22.072C30.0457 21.4028 30.491 20.9846 31.2036 20.9512C31.8984 20.9177 32.6111 20.9009 33.3059 20.8674C33.6802 20.8508 34.0542 20.8174 34.446 20.7839C34.4639 19.7466 34.4639 18.7598 34.4639 17.7058ZM23.9705 35.8235C23.8813 35.8066 23.7925 35.79 23.7034 35.79C20.3184 35.79 16.9155 35.79 13.5305 35.79C13.2632 35.79 13.1921 35.8904 13.21 36.1245C13.21 37.5298 13.21 38.9182 13.21 40.3235C13.21 40.8086 13.4414 41.0261 13.9402 41.0261C17.0225 41.0261 20.1045 41.0261 23.2043 41.0261C23.739 41.0261 23.9883 40.7751 23.9883 40.2734C23.9883 38.8848 23.9883 37.4963 23.9883 36.1245C23.9883 36.0242 23.9705 35.9238 23.9705 35.8235ZM24.7009 34.8699C24.8079 34.8699 24.897 34.8865 24.9683 34.8865C27.4802 34.8364 30.01 34.7695 32.522 34.7192C34.446 34.6858 36.3704 34.6355 38.3123 34.6021C38.6506 34.6021 38.7754 34.5186 38.7754 34.1672C38.7576 33.1299 38.7576 32.0928 38.7754 31.0557C38.7932 30.7043 38.6685 30.6206 38.2944 30.6206C33.876 30.6709 29.4399 30.7209 25.0217 30.7544C24.9148 30.7544 24.8079 30.7712 24.6831 30.7878C24.7009 32.1597 24.7009 33.498 24.7009 34.8699ZM60.7065 36.4089C61.3479 36.2083 61.918 35.907 62.1675 35.1375C62.488 34.2007 62.8977 33.314 63.3433 32.4272C63.5747 31.9756 63.8955 31.5239 64.2874 31.2061C64.6082 30.9553 64.5725 30.7712 64.4299 30.4868C63.0403 27.4421 61.0449 24.7988 58.4617 22.5571C58.1233 22.2561 57.749 21.9883 57.3572 21.6704C57.3572 21.821 57.3394 21.8879 57.3394 21.9548C57.3037 23.9792 57.2859 25.9866 57.2502 28.011C57.2502 28.1782 57.2681 28.3623 57.2146 28.5295C57.1433 28.7971 57.2324 28.9978 57.3928 29.1987C58.2834 30.3696 59.0496 31.6077 59.5483 32.9626C59.9939 34.1003 60.3323 35.2546 60.7065 36.4089ZM23.9705 34.8364C23.9705 34.7527 23.9883 34.7026 23.9883 34.6355C23.9883 33.063 23.9883 31.4905 23.9883 29.918C23.9883 29.8176 23.9705 29.7173 23.9526 29.6169C23.8992 29.2991 23.7212 29.1484 23.3469 29.1484C20.3362 29.1987 17.3252 29.2322 14.3145 29.2822C13.4592 29.2991 13.21 29.5667 13.21 30.353C13.21 31.7249 13.21 33.0964 13.21 34.4683C13.21 34.5854 13.2275 34.6858 13.2275 34.8196C16.8086 34.8364 20.3718 34.8364 23.9705 34.8364ZM44.6902 20.1982C44.6902 20.2319 44.6902 20.2654 44.6902 20.282C48.4136 20.4326 52.155 20.5999 55.8784 20.7505C55.8784 20.717 55.8784 20.6836 55.8962 20.6333C51.9946 18.1406 47.7188 16.7688 42.9976 16.585C40.949 16.5012 38.918 16.6853 36.9939 17.0701C37.0649 17.3711 37.1719 17.6052 37.1719 17.8396C37.1897 18.6091 37.1719 19.3787 37.1719 20.1648C37.1719 20.3154 37.1719 20.4827 37.1719 20.6836C38.8823 20.5999 40.5391 20.533 42.1782 20.4661C42.2852 20.1816 42.1069 20.1816 41.9287 20.1816C41.4656 20.1648 41.3408 20.031 41.3408 19.6128C41.3408 19.4287 41.3408 19.2449 41.3408 19.0608C41.323 18.7598 41.519 18.5923 41.804 18.5923C42.8552 18.5757 43.8884 18.5757 44.9397 18.5923C45.2781 18.5923 45.4385 18.7764 45.4563 19.1108C45.4919 19.8972 45.4028 20.1147 45.0107 20.1816C44.9219 20.1816 44.7971 20.1816 44.6902 20.1982ZM38.1697 42.1638C34.8381 42.1638 31.5601 42.1638 28.2285 42.1638C28.2285 43.385 28.2285 44.5728 28.2285 45.8108C29.3508 45.8108 30.4553 45.8108 31.5601 45.8108C33.5198 45.8108 35.4973 45.7939 37.457 45.7939C37.7241 45.7939 37.8311 45.7102 37.8489 45.4761C37.8667 45.2251 37.9023 44.9741 37.9202 44.7234C37.9915 43.8701 38.0806 43.0337 38.1697 42.1638ZM41.519 27.8435C41.519 25.8862 41.519 23.9624 41.519 22.0217C40.0581 22.0889 38.6328 22.1558 37.1719 22.2227C37.1719 24.1296 37.1719 25.9866 37.1719 27.8604C38.5972 27.8435 40.0225 27.8435 41.519 27.8435ZM45.2246 21.8379C45.2246 23.9121 45.2246 25.9531 45.2246 28.011C46.4717 28.011 47.7009 27.9941 48.9482 28.011C49.251 28.011 49.3223 27.9104 49.3223 27.6597C49.3044 25.9031 49.3223 24.1296 49.3223 22.373C49.3223 22.2727 49.3044 22.1724 49.3044 22.0217C47.9504 21.9548 46.6321 21.8879 45.2246 21.8379ZM36.6909 22.5906C36.6909 21.0181 36.6909 19.4456 36.6909 17.8896C36.6909 17.5718 36.584 17.4548 36.2456 17.4883C35.9604 17.5049 35.6755 17.5049 35.3904 17.4883C35.0164 17.4548 34.9094 17.5718 34.9094 17.9399C34.9272 20.0813 34.9094 22.2393 34.9094 24.3806C34.9094 25.3508 34.9272 26.3213 34.9094 27.2915C34.9094 27.6262 34.9985 27.7935 35.3726 27.7432C35.6577 27.7097 35.9426 27.7266 36.2278 27.7432C36.584 27.7766 36.6909 27.6597 36.6909 27.325C36.6909 25.7356 36.6909 24.1631 36.6909 22.5906ZM44.6902 28.1614C44.7258 28.1614 44.7615 28.1614 44.7971 28.1614C44.7971 28.0444 44.8149 27.9272 44.8149 27.7935C44.8328 26.4382 44.8506 25.0667 44.8862 23.7114C44.8862 23.1091 44.9041 22.5071 44.9041 21.9048C44.9041 21.6538 44.9575 21.4697 45.3315 21.4866C48.77 21.637 52.2085 21.7876 55.6467 21.9214C55.9854 21.9382 56.0745 22.0217 56.0745 22.3396C56.0388 24.1465 56.0032 25.97 55.9854 27.7766C55.9854 27.8938 55.9854 28.0276 55.9854 28.1614C56.3059 28.1614 56.5911 28.1614 56.894 28.1614C56.9116 28.0779 56.9116 28.0276 56.9116 27.9773C56.9473 25.9531 56.9651 23.9124 57.0007 21.8879C57.0007 21.3694 56.698 21.1018 56.1279 21.0684C54.3818 20.9846 52.636 20.9177 50.8901 20.8508C48.9482 20.7671 47.0061 20.7002 45.0642 20.5999C44.7437 20.583 44.6724 20.6836 44.6724 20.968C44.6724 23.2598 44.6724 25.5349 44.6724 27.8269C44.6724 27.9438 44.6724 28.061 44.6902 28.1614ZM34.446 21.1519C34.2859 21.1519 34.1611 21.1519 34.0364 21.1519C33.1455 21.1853 32.2727 21.2356 31.3818 21.269C30.6335 21.3025 30.3665 21.5366 30.3665 22.2561C30.3486 24.1965 30.3486 26.1372 30.3486 28.0779C30.3486 28.8306 30.5801 29.0647 31.3997 29.0647C33.6445 29.0647 35.907 29.0647 38.1519 29.0647C38.7397 29.0647 38.7397 29.0647 38.7754 28.5295C38.7754 28.4292 38.811 28.3286 38.8289 28.2117C38.6863 28.2117 38.5437 28.2117 38.4189 28.2117C36.1921 28.2117 33.9651 28.1948 31.7383 28.2283C31.3462 28.2283 31.2749 28.1113 31.2749 27.7766C31.2927 26.0369 31.3105 24.2971 31.2927 22.5405C31.2927 22.2058 31.4175 22.1223 31.7383 22.1223C32.5398 22.1055 33.3416 22.072 34.1255 22.0217C34.2324 22.0217 34.4104 21.9048 34.4282 21.821C34.4639 21.6035 34.446 21.3862 34.446 21.1519ZM34.4817 27.8604C34.4817 26.0703 34.4817 24.3137 34.4817 22.574C34.4817 22.3899 34.3926 22.3396 34.2146 22.3564C33.8047 22.373 33.3772 22.3899 32.9675 22.4065C32.5398 22.4233 32.1123 22.4568 31.6848 22.4902C31.6848 24.2971 31.6848 26.0869 31.6848 27.877C32.6111 27.8604 33.5198 27.8604 34.4817 27.8604ZM24.7188 30.3196C24.8435 30.3196 24.9683 30.3196 25.093 30.3196C28.4778 30.2861 31.8628 30.2527 35.23 30.2192C36.2812 30.2024 37.3501 30.2192 38.4011 30.2024C38.5081 30.2024 38.6863 30.1521 38.7219 30.0686C38.9001 29.6504 38.7219 29.4329 38.241 29.4329C35.9604 29.4329 33.698 29.4329 31.4175 29.4329C30.9187 29.4329 30.4731 29.3491 30.1348 28.9478C30.0635 28.864 29.8674 28.8474 29.7429 28.8474C28.282 28.8975 26.821 28.9478 25.3601 29.0146C25.0752 29.0312 24.79 29.0481 24.5405 29.0647C24.6118 29.4832 24.6653 29.8845 24.7188 30.3196ZM66.2471 35.4722C66.2649 35.3884 66.2827 35.3381 66.2827 35.2881C66.2649 34.1169 66.2471 32.9292 66.2114 31.7583C66.2114 31.6914 66.1936 31.6243 66.1582 31.5742C65.7483 31.0054 64.8218 30.8882 64.323 31.3901C63.9668 31.7583 63.6638 32.1765 63.4502 32.6113C62.9155 33.7322 62.4524 34.8699 61.9536 35.9907C61.9536 36.0073 61.9714 36.0242 61.9893 36.0576C62.2742 35.9739 62.5771 35.8735 62.8621 35.8235C63.165 35.7732 63.3254 35.6226 63.4502 35.3716C63.9133 34.4517 64.3943 33.5483 64.8752 32.6448C64.9287 32.5444 65 32.4441 65.0713 32.3269C65.4099 32.6282 65.5522 32.9292 65.4099 33.314C65.3208 33.5315 65.303 33.7656 65.2673 33.9832C65.1782 34.4348 65.0891 34.9033 64.9822 35.3884C65.4277 35.4387 65.8196 35.4553 66.2471 35.4722ZM54.4709 22.2727C54.4709 22.4233 54.4709 22.5405 54.4709 22.6575C54.4709 23.9792 54.4709 25.2839 54.4709 26.6057C54.4709 26.9905 54.4531 27.3752 54.4888 27.7432C54.4888 27.8269 54.6135 27.9773 54.7026 27.9773C54.9875 28.011 55.2905 27.9941 55.6111 27.9941C55.6289 27.7935 55.6467 27.6094 55.6467 27.4421C55.6646 26.02 55.6646 24.6147 55.7002 23.1929C55.7002 22.1389 55.7002 22.1223 54.4709 22.2727ZM37.2253 21.8713C37.3857 21.8713 37.5283 21.8713 37.6531 21.8713C38.8645 21.821 40.0759 21.7542 41.3052 21.7041C41.8931 21.6873 41.9109 21.7041 41.8931 22.2561C41.8752 24.113 41.8752 25.97 41.8574 27.8269C41.8574 27.9104 41.8396 27.9941 41.8574 28.061C41.8752 28.1279 41.9644 28.1948 42.0178 28.1948C42.0713 28.1948 42.1426 28.1279 42.1782 28.061C42.2139 28.011 42.196 27.9438 42.196 27.8938C42.196 25.6353 42.196 23.3601 42.196 21.1018C42.196 21.0015 42.1782 20.9009 42.1604 20.7839C40.5034 20.8508 38.8645 20.9343 37.2253 21.0015C37.2253 21.3025 37.2253 21.5701 37.2253 21.8713ZM58.2656 34C58.2656 34.1169 58.2834 34.2341 58.2834 34.3345C58.2834 35.3884 58.3013 36.4424 58.2834 37.4795C58.2834 37.8643 58.3547 38.1821 58.6042 38.4666C58.8003 38.7007 58.9961 38.7344 59.2278 38.5168C59.4417 38.3159 59.5483 38.1152 59.5129 37.8142C59.2812 35.5222 58.5508 33.3809 57.3572 31.3735C57.3394 31.3401 57.2859 31.3064 57.2324 31.2563C57.2324 32.1931 57.2324 33.0964 57.2324 34.0334C57.5886 34.0334 57.9094 34.0166 58.2656 34ZM54.2217 27.8101C54.2393 27.7266 54.2571 27.6763 54.2571 27.6094C54.2571 25.8862 54.2571 24.1465 54.2571 22.4233C54.2571 22.2058 54.1504 22.1389 53.9543 22.1389C53.2239 22.1223 52.5112 22.072 51.7808 22.072C51.0503 22.0552 50.3198 22.072 49.5718 22.072C49.5718 23.9624 49.5718 25.8862 49.5718 27.8101C51.1394 27.8101 52.6716 27.8101 54.2217 27.8101ZM63.5569 35.5557C63.9133 35.5222 64.1807 35.4888 64.4478 35.4722C64.7151 35.4553 64.822 35.355 64.8752 35.104C65 34.4348 65.1604 33.7656 65.2673 33.0964C65.2852 32.9626 65.2139 32.8123 65.196 32.6616C65.1604 32.6616 65.1069 32.6616 65.0713 32.6616C64.5903 33.6152 64.0916 34.552 63.5569 35.5557ZM56.9829 48.1863C57.3037 47.6343 57.5532 47.1992 57.856 46.6807C57.5176 46.6973 57.2324 46.6304 57.072 46.7476C56.8584 46.8982 56.698 46.8311 56.4841 46.8311C56.217 46.8145 55.9675 46.7976 55.7002 46.8311C55.5933 46.8479 55.4153 46.9817 55.4153 47.082C55.4153 47.1658 55.5579 47.3164 55.6646 47.3665C56.1636 47.5337 56.698 47.584 56.9829 48.1863ZM15.9534 46.8813C15.8999 46.8647 15.8643 46.8647 15.811 46.8479C15.7041 47.2327 15.5793 47.6006 15.4902 47.9856C15.4546 48.1025 15.4368 48.3201 15.5081 48.3535C15.6328 48.4373 15.8289 48.4204 15.9712 48.4373C15.9534 47.885 15.9534 47.3833 15.9534 46.8813ZM29.9744 27.4756C29.636 27.7935 29.333 28.0779 29.0125 28.3789C29.9031 28.5461 30.01 28.4626 29.9922 27.6763C29.9922 27.6094 29.9744 27.5591 29.9744 27.4756ZM73.605 42.9333C73.5693 42.9165 73.5515 42.8999 73.5159 42.8831C73.231 43.1172 72.928 43.3516 72.5718 43.6526C72.9636 43.6526 73.231 43.6526 73.5159 43.6526C73.5337 43.385 73.5693 43.1675 73.605 42.9333ZM55.9141 49.5747C55.54 49.5747 55.2371 49.5747 54.863 49.5747C55.0945 49.7922 55.2727 49.9429 55.4688 50.1101C55.6111 49.9429 55.7358 49.8088 55.9141 49.5747ZM73.6763 41.5112C73.6941 41.5112 73.7119 41.5112 73.7476 41.5112C73.7654 41.1599 73.7832 40.8086 73.801 40.4407C73.7476 40.4407 73.6763 40.4407 73.6228 40.4407C73.6228 40.8086 73.6406 41.1599 73.6763 41.5112Z" fill="#FFFFFF" fill-opacity="1.000000" fill-rule="nonzero"/>
	<path id="Vector" d="M60.9023 66.5042C61.3477 66.4707 61.7576 66.4373 62.1851 66.4038C62.3455 67.2236 62.5059 68.0432 62.6482 68.863C63.0046 70.7869 63.3608 72.7275 63.7173 74.6514C63.7529 74.8855 63.7173 74.9692 63.4856 75.0696C60.4927 76.2405 57.5173 77.4282 54.5422 78.616C54.2927 78.7166 54.1858 78.6497 54.0432 78.4656C51.9946 75.7722 49.928 73.0789 47.8792 70.3853C47.7188 70.168 47.5762 70.0674 47.2556 70.1345C44.5833 70.6028 41.8752 70.6531 39.1851 70.4858C38.6506 70.4521 38.1338 70.3853 37.6172 70.3018C37.3501 70.2683 37.1719 70.3018 36.9937 70.5359C34.9626 73.2795 32.896 76.0229 30.865 78.7666C30.7048 78.9841 30.5623 79.0176 30.3127 78.9172C27.3376 77.7629 24.3445 76.6252 21.3516 75.4878C21.1199 75.4041 21.0664 75.3037 21.1021 75.0527C21.6008 72.3594 22.0642 69.6492 22.5452 66.9392C22.563 66.7886 22.6165 66.6548 22.6521 66.4541C23.0618 66.4875 23.4717 66.521 23.917 66.5376C23.7922 67.2905 23.6675 68.0266 23.5251 68.7627C23.1865 70.6196 22.866 72.4597 22.5273 74.3167C22.4917 74.5173 22.563 74.6179 22.7769 74.7014C25.1462 75.6047 27.5337 76.5083 29.9031 77.4282C30.1882 77.5454 30.2949 77.4116 30.4197 77.2444C32.415 74.5845 34.4104 71.9243 36.3879 69.2478C36.584 68.98 36.78 68.9131 37.1006 68.98C39.4167 69.3984 41.7683 69.4319 44.1199 69.2478C45.4028 69.1475 46.6677 68.9299 47.9504 68.7627C48.1641 68.7292 48.271 68.7793 48.3958 68.9465C50.4268 71.6067 52.4756 74.2666 54.4888 76.9431C54.667 77.1775 54.8093 77.2109 55.0767 77.0938C57.3748 76.1736 59.6909 75.2534 61.989 74.3501C62.2742 74.2332 62.3276 74.0991 62.2742 73.8315C61.811 71.4058 61.3655 68.98 60.9023 66.5042Z" fill="#FFFFFF" fill-opacity="1.000000" fill-rule="nonzero"/>
	<path id="Vector" d="M42.1248 53.4556C52.5825 53.4556 63.0403 53.4556 73.4805 53.4556C74.7454 53.4556 75.8855 53.79 76.7585 54.6768C77.3999 55.3125 77.7561 56.082 77.7561 56.9519C77.7739 58.5413 77.7561 60.1138 77.7561 61.7031C77.7561 62.2551 77.3999 62.6064 76.9722 62.8909C76.0637 63.5098 74.9946 63.8108 73.9436 64.0952C71.396 64.7644 68.7949 65.166 66.176 65.417C63.3611 65.6846 60.5461 65.9355 57.7312 66.1196C50.8367 66.5713 43.9419 66.6047 37.0474 66.5044C33.698 66.4541 30.3665 66.3369 27.0171 66.1531C24.0239 65.9856 21.0132 65.7014 18.02 65.417C15.3123 65.166 12.6221 64.7478 10.0032 64.0283C8.98755 63.7439 7.98999 63.4429 7.11694 62.8406C6.65381 62.5227 6.42212 62.1045 6.42212 61.5356C6.43994 60.0635 6.42212 58.6082 6.43994 57.136C6.45776 55.3459 7.63354 53.9575 9.52197 53.5728C9.93188 53.489 10.3772 53.4556 10.8047 53.4556C21.2805 53.4556 31.7026 53.4556 42.1248 53.4556ZM42.1069 53.8738C31.7561 53.8738 21.4229 53.8738 11.072 53.8738C10.7512 53.8738 10.4307 53.8906 10.1099 53.9072C8.32837 54.0244 6.93872 55.3962 6.93872 57.0522C6.9209 58.5913 6.93872 60.1306 6.93872 61.6528C6.93872 61.9875 7.02783 62.3052 7.33081 62.4727C7.9187 62.8071 8.52441 63.1753 9.16577 63.3926C11.3926 64.1455 13.7266 64.4968 16.0603 64.7812C18.2161 65.0488 20.3718 65.2495 22.5454 65.417C25.1287 65.6177 27.7119 65.7683 30.313 65.8853C32.5933 65.9856 34.8916 66.0693 37.1721 66.0693C41.0024 66.0862 44.8506 66.0693 48.6809 66.0359C50.5693 66.019 52.4756 65.9521 54.3643 65.8687C56.2705 65.7849 58.1946 65.6677 60.1008 65.5508C61.6509 65.4504 63.2185 65.3333 64.7686 65.1826C66.2473 65.0322 67.708 64.8481 69.1868 64.6475C71.1108 64.3965 73.0171 64.0786 74.8523 63.4932C75.5471 63.2756 76.2063 62.9243 76.8655 62.573C77.2217 62.3889 77.3999 62.0544 77.3999 61.6362C77.3999 60.0803 77.4177 58.5244 77.3999 56.9519C77.3821 56.1824 77.0791 55.4966 76.509 54.9277C75.6895 54.1079 74.6741 53.8403 73.5161 53.8403C63.0049 53.8738 52.5469 53.8738 42.1069 53.8738Z" fill="#FFFFFF" fill-opacity="1.000000" fill-rule="nonzero"/>
	<path id="Vector" d="M42.1072 53.874C52.5649 53.874 63.0227 53.874 73.4626 53.874C74.6208 53.874 75.6362 54.1416 76.4558 54.9614C77.0259 55.5303 77.3467 56.2161 77.3467 56.9856C77.3645 58.5415 77.3467 60.0972 77.3467 61.6699C77.3467 62.0713 77.1685 62.4226 76.812 62.6067C76.1528 62.9412 75.4937 63.2925 74.7988 63.5269C72.9639 64.1123 71.0576 64.4302 69.1335 64.6812C67.6548 64.8818 66.1938 65.0659 64.7153 65.2163C63.1653 65.3669 61.6152 65.4841 60.0476 65.5845C58.1414 65.7014 56.217 65.8186 54.3108 65.9023C52.4224 65.9858 50.5339 66.0527 48.6277 66.0696C44.7974 66.103 40.9492 66.1365 37.1187 66.103C34.8384 66.0862 32.54 66.0193 30.2598 65.9189C27.6765 65.802 25.0754 65.6514 22.4919 65.4507C20.3186 65.2832 18.1628 65.0825 16.0071 64.8149C13.6733 64.5305 11.3394 64.1792 9.11255 63.4263C8.47119 63.209 7.86548 62.8408 7.27734 62.5063C6.97461 62.3389 6.8855 62.021 6.8855 61.6865C6.90332 60.1475 6.8855 58.6084 6.8855 57.0859C6.90332 55.4131 8.27515 54.0581 10.0566 53.9409C10.3774 53.9243 10.698 53.9075 11.0188 53.9075C21.4053 53.874 31.7561 53.874 42.1072 53.874ZM72.0732 63.5769C72.8569 63.3762 73.5696 63.259 74.2466 63.0249C74.9949 62.7739 75.7075 62.4395 76.4202 62.1047C76.5806 62.021 76.7407 61.7534 76.7407 61.5693C76.7585 60.0637 76.7585 58.5415 76.7585 57.0359C76.7585 56.3333 76.4736 55.731 75.9392 55.2458C75.28 54.6436 74.4604 54.4429 73.5518 54.4429C52.6006 54.4595 31.6316 54.4429 10.6802 54.4429C10.5022 54.4429 10.3062 54.4429 10.1279 54.4595C8.73828 54.5432 7.58032 55.7141 7.58032 57.019C7.58032 58.4243 7.61597 59.813 7.5625 61.218C7.52686 61.8372 7.81201 62.155 8.34644 62.406C8.50684 62.4729 8.64917 62.5732 8.80957 62.6067C10.021 62.9412 11.2146 63.3428 12.4441 63.5938C15.6687 64.2629 18.929 64.5806 22.207 64.8315C24.8972 65.0491 27.6052 65.2163 30.2954 65.3167C33.6804 65.4338 37.0474 65.5176 40.4324 65.5342C43.6392 65.551 46.8462 65.5342 50.053 65.4507C52.939 65.3838 55.8252 65.2163 58.7114 65.0659C60.4038 64.9822 62.0964 64.865 63.7888 64.6978C65.7307 64.5137 67.6548 64.2461 69.5967 64.012C70.238 63.9282 70.8794 63.7944 71.5029 63.6772C71.5029 63.6606 71.5029 63.6272 71.4851 63.6104C71.218 63.6104 70.9507 63.6104 70.6301 63.6104C70.6301 63.2759 70.6123 62.9412 70.6301 62.6233C70.6479 62.3892 70.541 62.3223 70.3093 62.3223C69.7927 62.3389 69.2761 62.3223 68.7595 62.3223C68.51 62.3223 68.4209 62.2554 68.4209 62.0044C68.4209 60.0806 68.4209 58.1733 68.4209 56.2495C68.4209 56.0154 68.4922 55.915 68.7595 55.9316C69.0088 55.9485 69.2761 55.9485 69.5254 55.9316C69.8284 55.8982 69.9175 56.0154 69.9175 56.2998C69.8997 57.772 69.9175 59.2607 69.9175 60.7329C69.9175 61.1345 69.9175 61.1345 70.3984 61.0508C70.3984 59.3611 70.3984 57.6716 70.3984 55.9651C70.915 55.9651 71.3784 55.9651 71.8772 55.9651C71.8772 56.1492 71.8772 56.283 71.8772 56.4336C71.8772 57.8723 71.8772 59.3276 71.8772 60.7664C71.8772 60.8667 71.8772 61.0508 71.9128 61.0676C72.2334 61.1846 72.1086 61.4355 72.1265 61.6196C72.0908 62.2554 72.0732 62.8743 72.0732 63.5769Z" fill="#FFFFFF" fill-opacity="1.000000" fill-rule="nonzero"/>
	<path id="Vector" d="M62.2385 40.6074C61.8286 40.6074 61.4011 40.6074 60.9915 40.6074C60.7776 40.6074 60.6707 40.5574 60.6707 40.3398C60.6885 39.9382 60.6885 39.5369 60.6707 39.1353C60.6707 38.9346 60.7419 38.8677 60.9558 38.8677C61.8108 38.8677 62.6482 38.8677 63.5034 38.8677C63.7349 38.8677 63.8062 38.9514 63.7883 39.1521C63.7705 39.5369 63.7705 39.9382 63.7883 40.323C63.7883 40.5239 63.717 40.6074 63.4856 40.6074C63.0579 40.6074 62.6482 40.6074 62.2385 40.6074Z" fill="#FFFFFF" fill-opacity="1.000000" fill-rule="nonzero"/>
	<path id="Vector" d="M30.2947 37.5632C30.3838 37.5632 30.4729 37.5464 30.5798 37.5464C32.2188 37.5464 33.8757 37.5464 35.5146 37.5464C35.6394 37.5464 35.8354 37.6301 35.8711 37.7136C35.9424 37.9143 35.8533 38.0483 35.5859 38.0483C34.6597 38.0315 33.751 38.0483 32.8245 38.0483C32.1118 38.0483 31.3994 38.0483 30.6868 38.0483C30.2234 38.0483 30.2056 38.0149 30.2947 37.5632Z" fill="#FFFFFF" fill-opacity="1.000000" fill-rule="nonzero"/>
	<path id="Vector" d="M34.9807 38.8008C34.8738 38.8008 34.7847 38.8176 34.6958 38.8176C33.3774 38.8176 32.0413 38.8176 30.7229 38.8176C30.5803 38.8176 30.3843 38.8677 30.3843 38.6335C30.3665 38.3826 30.5447 38.3994 30.7229 38.3994C32.0413 38.3994 33.3774 38.3994 34.6958 38.3994C35.0342 38.3826 35.0876 38.5164 34.9807 38.8008Z" fill="#FFFFFF" fill-opacity="1.000000" fill-rule="nonzero"/>
	<path id="Vector" d="M32.5215 39.2693C33.074 39.2693 33.6262 39.2527 34.1785 39.2861C34.2854 39.2861 34.4458 39.3865 34.4814 39.47C34.5347 39.6875 34.3567 39.7043 34.1785 39.7043C33.0562 39.7043 31.9336 39.7043 30.8291 39.7043C30.6509 39.7043 30.4729 39.6875 30.5261 39.47C30.5439 39.3865 30.7222 39.2861 30.8291 39.2861C31.3813 39.2527 31.9514 39.2693 32.5215 39.2693Z" fill="#FFFFFF" fill-opacity="1.000000" fill-rule="nonzero"/>
	<path id="Vector" d="M29.4578 38.416C29.2974 38.4329 29.2083 38.4329 29.1013 38.4495C28.7986 38.4829 28.656 38.3826 28.6738 38.0647C28.7095 37.5796 28.6917 37.0945 28.6738 36.6094C28.656 36.325 28.7986 36.2915 29.0481 36.2915C29.2617 36.3083 29.4578 36.2747 29.4399 36.5759C29.4578 37.1948 29.4578 37.7803 29.4578 38.416Z" fill="#FFFFFF" fill-opacity="1.000000" fill-rule="nonzero"/>
	<path id="Vector" d="M31.8628 40.0889C32.1479 40.0889 32.4507 40.0723 32.7358 40.0889C32.8071 40.0889 32.8962 40.1895 32.9675 40.2395C32.8962 40.3064 32.825 40.4402 32.7358 40.4402C32.1479 40.457 31.5601 40.457 30.9722 40.4402C30.8831 40.4402 30.8118 40.3232 30.7227 40.2729C30.8118 40.2061 30.8831 40.1057 30.9722 40.1057C31.2749 40.0889 31.5601 40.0889 31.8628 40.0889Z" fill="#FFFFFF" fill-opacity="1.000000" fill-rule="nonzero"/>
	<path id="Vector" d="M34.0901 32.4438C34.2327 32.4438 34.3928 32.4438 34.5354 32.4438C34.7493 32.4272 34.8384 32.511 34.8384 32.7283C34.8384 32.9458 34.7136 32.9792 34.5354 32.9626C34.197 32.9626 33.8762 32.9626 33.5378 32.9626C33.3418 32.9626 33.2883 32.8789 33.2883 32.7117C33.2883 32.5444 33.3418 32.4438 33.5378 32.4607C33.7158 32.4438 33.894 32.4438 34.0901 32.4438Z" fill="#FFFFFF" fill-opacity="1.000000" fill-rule="nonzero"/>
	<path id="Vector" d="M18.7864 30.2861C20.0334 30.2861 21.2983 30.2861 22.5454 30.2861C22.5989 30.2861 22.6523 30.2861 22.688 30.2861C22.9375 30.2861 23.2759 30.2527 23.2937 30.5872C23.2937 30.8884 22.9729 30.8716 22.7236 30.8716C22.1001 30.8884 21.4766 30.905 20.853 30.9219C18.8577 30.9553 16.8801 30.9719 14.8848 30.9888C14.6353 30.9888 14.2791 31.0388 14.2791 30.7043C14.2612 30.353 14.6174 30.4031 14.8669 30.4031C16.1853 30.4031 17.5037 30.4031 18.8042 30.4031C18.7864 30.353 18.7864 30.3196 18.7864 30.2861Z" fill="#FFFFFF" fill-opacity="1.000000" fill-rule="nonzero"/>
	<path id="Vector" d="M54.0256 27.5925C53.3843 27.5925 52.7429 27.5925 52.1194 27.5925C51.4246 27.5925 50.7476 27.5757 50.0527 27.5757C49.8035 27.5757 49.7144 27.4919 49.7144 27.2578C49.7322 25.7021 49.7144 24.1462 49.7144 22.5903C49.7144 22.4065 49.7678 22.3228 49.9817 22.3228C51.2644 22.373 52.5293 22.4065 53.812 22.4734C53.9011 22.4734 54.0613 22.6238 54.0791 22.7075C54.0969 24.2969 54.0791 25.886 54.0791 27.4919C54.0791 27.4919 54.0613 27.5088 54.0256 27.5925ZM49.946 22.5234C49.946 24.0959 49.946 25.6184 49.946 27.1406C49.946 27.375 50.124 27.3582 50.2844 27.3582C51.1218 27.375 51.9592 27.375 52.7964 27.375C53.135 27.375 53.4734 27.375 53.8298 27.375C53.8298 25.7856 53.8298 24.23 53.8298 22.6572C52.5293 22.6238 51.2644 22.5737 49.946 22.5234Z" fill="#FFFFFF" fill-opacity="1.000000" fill-rule="nonzero"/>
	<path id="Vector" d="M48.4854 55.948C48.4854 56.1155 48.4854 56.2158 48.4854 56.3162C48.4854 58.2065 48.4854 60.0801 48.4854 61.9707C48.4854 62.2549 48.3962 62.3555 48.0933 62.3386C47.7549 62.3218 47.4163 62.3386 47.0244 62.3386C47.0244 61.7866 47.0244 61.2512 47.0244 60.7327C46.9888 60.7327 46.9709 60.7158 46.9353 60.7158C46.8284 61.134 46.6858 61.5522 46.5967 61.9873C46.5435 62.2549 46.4187 62.3555 46.1335 62.3386C45.8486 62.3218 45.5457 62.3218 45.2427 62.3386C44.9578 62.3555 44.8865 62.2717 44.8865 62.0042C44.9043 60.9333 44.8865 59.8794 44.8865 58.8088C44.8865 57.9556 44.8865 57.1023 44.8865 56.2493C44.8865 56.0317 44.9578 55.9314 45.2073 55.948C45.51 55.9648 45.7952 55.9648 46.0979 55.948C46.3296 55.9314 46.4009 56.0317 46.4009 56.2324C46.3831 56.6506 46.4009 57.0522 46.49 57.4871C46.5967 57.0857 46.7214 56.6675 46.8105 56.2659C46.864 56.0317 46.9709 55.9314 47.238 55.948C47.6301 55.9648 48.022 55.948 48.4854 55.948Z" fill="#FFFFFF" fill-opacity="1.000000" fill-rule="nonzero"/>
	<path id="Vector" d="M41.6797 57.3872C41.8398 56.9856 41.9824 56.5674 42.1428 56.166C42.1785 56.0823 42.3032 55.9651 42.3745 55.9651C42.8198 55.9485 43.283 55.9485 43.7817 55.9485C43.6929 56.3333 43.6038 56.6511 43.5325 56.9856C43.3899 57.5378 43.2651 58.0898 43.0869 58.6252C42.9446 59.0435 42.9624 59.4448 43.0869 59.8799C43.3364 60.666 43.5325 61.4524 43.7817 62.3223C43.2473 62.3223 42.7664 62.3391 42.2854 62.3057C42.2141 62.3057 42.1428 62.1716 42.1072 62.0881C41.9468 61.6865 41.8042 61.2852 41.5906 60.8835C41.5906 61.2349 41.5728 61.5862 41.5906 61.9543C41.6084 62.2385 41.5193 62.3557 41.1985 62.3391C40.9314 62.3223 40.6641 62.3223 40.397 62.3391C40.1653 62.3557 40.094 62.2554 40.094 62.0547C40.094 60.114 40.094 58.1733 40.094 56.2329C40.094 56.0322 40.1653 55.9485 40.3792 55.9485C41.5728 55.8982 41.5728 55.8816 41.5728 57.019C41.5728 57.1362 41.5728 57.27 41.5728 57.3872C41.6262 57.3872 41.644 57.3872 41.6797 57.3872Z" fill="#FFFFFF" fill-opacity="1.000000" fill-rule="nonzero"/>
	<path id="Vector" d="M25.396 55.9817C25.8948 55.9817 26.3582 55.9817 26.8748 55.9817C26.8748 56.7512 26.8748 57.5039 26.8748 58.24C27.1418 58.3403 27.2488 58.2734 27.231 58.0393C27.231 57.4873 27.231 56.9351 27.231 56.3831C27.231 56.2659 27.231 56.1321 27.231 55.9648C27.6943 55.9648 28.104 55.9648 28.5137 55.9648C28.7632 55.9648 28.7097 56.1655 28.7097 56.2993C28.7097 57.437 28.7097 58.5913 28.7097 59.729C28.7097 60.4985 28.6919 61.2512 28.7097 62.0208C28.7097 62.2886 28.6206 62.3721 28.3535 62.3555C27.9971 62.322 27.5161 62.439 27.3022 62.2549C27.124 62.1045 27.231 61.636 27.231 61.3015C27.231 60.8164 27.231 60.3311 27.2131 59.8459C27.2131 59.7456 27.1062 59.6284 27.0527 59.5281C26.9995 59.6284 26.8926 59.729 26.8748 59.8293C26.8569 60.5486 26.8569 61.2681 26.8748 61.9707C26.8926 62.2886 26.7678 62.3721 26.447 62.3555C26.2156 62.3386 25.9839 62.3386 25.7522 62.3555C25.4673 62.3889 25.3782 62.2717 25.3782 62.0042C25.396 60.2642 25.3782 58.541 25.3782 56.8013C25.396 56.5337 25.396 56.2659 25.396 55.9817Z" fill="#FFFFFF" fill-opacity="1.000000" fill-rule="nonzero"/>
	<path id="Vector" d="M59.584 55.9651C60.3857 55.9651 61.1697 55.9485 61.9355 55.9819C62.2207 55.9985 62.8621 56.8015 62.8621 57.0859C62.8621 57.3201 62.8621 57.571 62.8621 57.8054C62.8799 58.2236 62.8977 58.625 62.3633 58.876C63.1116 59.2776 62.8086 59.9131 62.8621 60.4485C62.8799 60.5657 62.8442 60.6829 62.8621 60.7998C63.0225 61.4858 62.5415 61.8538 62.0959 62.2554C62.0425 62.3054 61.9712 62.3389 61.8999 62.3389C61.134 62.3389 60.3501 62.3389 59.5662 62.3389C59.584 60.1975 59.584 58.1064 59.584 55.9651ZM61.0449 61.0676C61.0806 61.1011 61.134 61.1345 61.1697 61.168C61.2407 61.0842 61.3833 61.0173 61.4011 60.917C61.4189 60.5154 61.4189 60.114 61.4011 59.7124C61.4011 59.6455 61.2942 59.5786 61.2407 59.4949C61.1875 59.5786 61.0627 59.6455 61.0627 59.7292C61.0449 60.1809 61.0449 60.6157 61.0449 61.0676ZM61.0627 58.2571C61.3298 58.3406 61.4189 58.2571 61.4011 58.0396C61.3833 57.8389 61.3833 57.6213 61.4011 57.4207C61.4189 57.1528 61.2764 57.1362 61.0627 57.2197C61.0627 57.5544 61.0627 57.9058 61.0627 58.2571Z" fill="#FFFFFF" fill-opacity="1.000000" fill-rule="nonzero"/>
	<path id="Vector" d="M22.064 57.2029C22.064 58.0393 22.064 58.8591 22.064 59.679C22.064 60.4651 22.064 61.2515 22.064 62.0376C22.064 62.2551 21.9929 62.3555 21.7434 62.3389C21.4404 62.322 21.1555 62.322 20.8525 62.3389C20.6211 62.3555 20.5498 62.2551 20.5676 62.0544C20.5676 60.3647 20.5676 58.6584 20.5854 56.9688C20.5854 56.8015 20.7812 56.6174 20.8882 56.4502C21.1912 56.0486 21.583 55.8982 22.1174 55.9482C22.5986 55.9985 23.0796 55.9651 23.5605 55.9482C23.7922 55.9482 23.8992 55.9985 23.8992 56.2327C23.8992 58.1733 23.8992 60.1138 23.8992 62.0544C23.8992 62.2551 23.8279 62.3555 23.5962 62.3389C23.3467 62.322 23.0974 62.322 22.8657 62.3389C22.5095 62.3723 22.4026 62.272 22.4026 61.9207C22.4204 60.4485 22.4026 58.9595 22.4026 57.4873C22.4204 57.3032 22.4561 57.1025 22.064 57.2029Z" fill="#FFFFFF" fill-opacity="1.000000" fill-rule="nonzero"/>
	<path id="Vector" d="M58.0874 59.1604C58.0874 59.7961 58.0696 60.4319 58.0874 61.0676C58.1052 61.3855 57.9807 61.6028 57.7668 61.8372C57.4104 62.2385 57.0007 62.3389 56.4663 62.3723C55.718 62.4395 55.2549 62.1216 54.8628 61.6196C54.7915 61.5359 54.7559 61.3855 54.7559 61.2683C54.7559 59.863 54.738 58.4578 54.7559 57.0525C54.7559 56.8687 54.9341 56.6677 55.041 56.5005C55.344 56.0488 55.8071 55.9819 56.3594 55.9316C57.1255 55.8647 57.553 56.2329 57.9451 56.7012C58.0164 56.7849 58.0518 56.9355 58.0518 57.0525C58.0874 57.7385 58.0874 58.4578 58.0874 59.1604ZM56.2703 61.0676C56.3059 61.1011 56.3416 61.1345 56.3772 61.168C56.4485 61.0842 56.5911 61.0007 56.5911 60.9001C56.6089 59.7292 56.5911 58.575 56.6089 57.4038C56.6089 57.1697 56.502 57.1194 56.2703 57.2031C56.2703 58.4912 56.2703 59.7793 56.2703 61.0676Z" fill="#FFFFFF" fill-opacity="1.000000" fill-rule="nonzero"/>
	<path id="Vector" d="M49.9993 55.9648C50.801 55.9648 51.585 55.9482 52.3508 55.9648C52.636 55.9817 53.2952 56.7847 53.2952 57.0522C53.2952 57.7883 53.2773 58.5244 53.2952 59.2605C53.2952 59.5449 53.1882 59.7458 53.01 59.9631C52.6182 60.4485 52.1194 60.6157 51.4602 60.4651C51.4602 61.1008 51.4602 61.6697 51.4602 62.2717C50.9436 62.2717 50.4802 62.2717 49.9814 62.2717C49.9993 60.1975 49.9993 58.1062 49.9993 55.9648ZM51.4602 59.2773C51.6917 59.3611 51.8164 59.3108 51.7986 59.0767C51.7986 58.5244 51.7986 57.9724 51.7986 57.4204C51.7986 57.1694 51.6917 57.1194 51.4602 57.2197C51.4602 57.9055 51.4602 58.5747 51.4602 59.2773Z" fill="#FFFFFF" fill-opacity="1.000000" fill-rule="nonzero"/>
	<path id="Vector" d="M30.2061 62.3391C30.2061 60.1978 30.2061 58.1064 30.2061 55.9819C30.687 55.9819 31.1504 55.9819 31.667 55.9819C31.667 56.7349 31.667 57.4875 31.667 58.2405C31.7561 58.2571 31.8274 58.2905 31.8628 58.2739C32.6111 58.1064 33.0032 58.575 33.395 59.0435C33.4663 59.127 33.502 59.2441 33.502 59.3613C33.5198 59.9968 33.5376 60.6326 33.4841 61.2683C33.4663 61.4524 33.2881 61.6365 33.1814 61.8203C32.8784 62.2554 32.4509 62.3892 31.8984 62.3557C31.3462 62.3057 30.7939 62.3391 30.2061 62.3391ZM31.667 61.0842C31.7026 61.1011 31.7383 61.1345 31.7739 61.1511C31.8628 61.0842 32.0054 61.0173 32.0232 60.9504C32.041 60.5322 32.041 60.0974 32.0232 59.6624C32.0232 59.6121 31.9163 59.5452 31.8452 59.4951C31.7917 59.5452 31.6848 59.6121 31.6848 59.6624C31.667 60.1475 31.667 60.616 31.667 61.0842Z" fill="#FFFFFF" fill-opacity="1.000000" fill-rule="nonzero"/>
	<path id="Vector" d="M13.5303 60.03C13.3523 60.0134 13.2275 59.9966 13.1028 60.0134C12.6753 60.0803 12.408 59.8962 12.105 59.6287C11.7844 59.3274 11.6418 59.0264 11.6597 58.5913C11.6953 57.8218 11.6775 57.0522 11.6597 56.2659C11.6597 56.0317 11.731 55.9314 11.9983 55.9482C12.3723 55.9817 12.8533 55.8477 13.0671 56.0317C13.2632 56.199 13.1562 56.6843 13.1562 57.0188C13.1741 57.5208 13.1562 58.0393 13.1741 58.5413C13.1741 58.6248 13.281 58.7085 13.3523 58.792C13.4055 58.7085 13.5125 58.6248 13.5125 58.5413C13.5303 57.8218 13.5125 57.1025 13.5125 56.3999C13.5125 56.2659 13.5125 56.1489 13.5125 55.9983C14.0115 55.9983 14.4746 55.9983 14.9734 55.9983C14.9734 58.1062 14.9734 60.1973 14.9734 62.322C14.4924 62.322 14.0291 62.322 13.5303 62.322C13.5303 61.5525 13.5303 60.8164 13.5303 60.03Z" fill="#FFFFFF" fill-opacity="1.000000" fill-rule="nonzero"/>
	<path id="Vector" d="M64.4297 55.9648C65.1958 55.9648 65.9619 55.9648 66.71 55.9648C66.7812 55.9648 66.8347 56.0652 66.906 56.1155C66.9238 56.1321 66.906 56.1824 66.906 56.2158C66.8882 56.5168 66.9951 56.9185 66.8169 57.0688C66.6567 57.2363 66.229 57.1526 65.8728 57.186C65.8728 57.5374 65.8728 57.8887 65.8728 58.2568C65.9976 58.2568 66.1042 58.2734 66.2112 58.2734C66.8525 58.2903 66.7812 58.1897 66.7812 58.8423C66.7812 59.043 66.7812 59.2271 66.7812 59.4946C66.532 59.4946 66.3181 59.478 66.1042 59.5115C66.0151 59.5281 65.855 59.6284 65.855 59.6956C65.8372 60.1472 65.8372 60.6155 65.8372 61.1174C66.1221 61.1174 66.3538 61.1174 66.6033 61.1174C66.7991 61.1174 66.8882 61.1677 66.8882 61.3684C66.9417 62.322 66.9595 62.322 65.9441 62.322C65.4985 62.322 65.0532 62.322 64.6257 62.322C64.4475 62.322 64.3584 62.2717 64.3584 62.0876C64.3584 60.0803 64.3584 58.0728 64.3762 56.0652C64.3762 56.0652 64.394 56.0317 64.4297 55.9648Z" fill="#FFFFFF" fill-opacity="1.000000" fill-rule="nonzero"/>
	<path id="Vector" d="M16.6123 55.9648C17.3962 55.9648 18.1802 55.9648 18.946 55.9817C18.9995 55.9817 19.1064 56.1155 19.1064 56.1824C19.1243 56.4333 19.1064 56.6841 19.1243 56.9519C19.1243 57.136 19.0352 57.186 18.8572 57.186C18.6255 57.186 18.3938 57.186 18.1267 57.186C18.1267 57.5542 18.1267 57.9055 18.1267 58.2903C18.3938 58.3069 18.679 58.3069 18.9817 58.3237C18.9817 58.7085 18.9817 59.0933 18.9817 59.5115C18.7681 59.5115 18.572 59.4946 18.3582 59.5281C18.269 59.5449 18.1089 59.6453 18.1089 59.7122C18.0911 60.1638 18.0911 60.6323 18.0911 61.134C18.376 61.134 18.6077 61.134 18.8572 61.134C19.053 61.1174 19.1243 61.1843 19.1421 61.385C19.1956 62.3386 19.1956 62.3386 18.198 62.3386C17.699 62.3386 17.218 62.3386 16.7192 62.322C16.7014 62.322 16.6836 62.3052 16.6301 62.2717C16.6123 60.1973 16.6123 58.1062 16.6123 55.9648Z" fill="#FFFFFF" fill-opacity="1.000000" fill-rule="nonzero"/>
	<path id="Vector" d="M35.3547 59.1436C35.3547 60.0972 35.3369 61.0339 35.3547 61.9875C35.3547 62.2551 35.2656 62.3555 34.9805 62.3389C34.7134 62.322 34.446 62.322 34.179 62.3389C33.9651 62.3389 33.876 62.2717 33.876 62.071C33.876 60.1306 33.876 58.1731 33.876 56.2327C33.876 56.032 33.9473 55.9648 34.1611 55.9648C34.4639 55.9817 34.749 55.9817 35.0518 55.9648C35.3191 55.9482 35.3904 56.0654 35.3726 56.2996C35.3369 57.2363 35.3369 58.1899 35.3547 59.1436Z" fill="#FFFFFF" fill-opacity="1.000000" fill-rule="nonzero"/>
	<path id="Vector" d="M36.5127 59.4951C36.5127 59.0601 36.5127 58.7087 36.5127 58.2905C37.3145 58.2905 38.0984 58.2905 38.8643 58.2905C38.9177 58.2905 38.9712 58.3909 39.0247 58.4412C39.0425 58.4578 39.0247 58.5081 39.0247 58.5415C39.0781 59.4783 39.0781 59.4783 38.0806 59.4783C37.5637 59.4951 37.0649 59.4951 36.5127 59.4951Z" fill="#FFFFFF" fill-opacity="1.000000" fill-rule="nonzero"/>
</svg>
