<svg width="106.038086" height="128.000000" viewBox="0 0 106.038 128" fill="none" xmlns="http://www.w3.org/2000/svg" xmlns:xlink="http://www.w3.org/1999/xlink">
	<desc>
			Created with Pixso.
	</desc>
	<defs/>
	<path id="Vector" d="M102.248 15.0256C102.204 15.0009 102.147 14.9679 102.085 14.9321C102.153 14.9713 102.228 15.0145 102.293 15.0515C102.277 15.043 102.262 15.0337 102.248 15.0256Z" fill="#363C13" fill-opacity="1.000000" fill-rule="nonzero"/>
	<path id="Vector" d="M3.61719 112.786C3.59766 112.775 3.62402 112.79 3.67188 112.818C3.66504 112.814 3.66113 112.812 3.65527 112.809C3.64062 112.8 3.63281 112.795 3.61719 112.786Z" fill="#363C13" fill-opacity="1.000000" fill-rule="nonzero"/>
	<path id="Vector" d="M3.89355 112.946C3.87305 112.934 3.84668 112.919 3.82227 112.905C3.88184 112.939 3.94043 112.973 3.99609 113.005C3.95898 112.983 3.9248 112.964 3.89355 112.946Z" fill="#363C13" fill-opacity="1.000000" fill-rule="nonzero"/>
	<path id="Vector" d="M3.81934 112.902L3.82324 112.905C3.78223 112.881 3.7373 112.856 3.7041 112.836C3.73438 112.854 3.77051 112.874 3.81934 112.902Z" fill="#363C13" fill-opacity="1.000000" fill-rule="nonzero"/>
	<path id="Vector" d="M41.5645 38.6445C44.3379 35.3267 45.6123 34.097 47.9033 31.8927L34.7002 24.2209C32.6738 26.0917 30.7119 28.0864 28.8711 30.2156L36.5947 34.7108C36.2803 34.4613 41.2812 38.4205 41.5645 38.6445Z" fill="#363C13" fill-opacity="1.000000" fill-rule="nonzero"/>
	<path id="Vector" d="M69.2871 8.54834C69.8955 8.90186 57.3193 1.59265 56.3301 1.01807L36.4482 12.4985L49.4033 20.0276L69.2871 8.54834Z" fill="#363C13" fill-opacity="1.000000" fill-rule="nonzero"/>
	<path id="Vector" d="M96.3848 27.134C97.4219 28.7507 98.3096 30.5908 99.0361 32.6323L104.736 28.7533L97.9082 24.7878L96.3848 27.134Z" fill="#363C13" fill-opacity="1.000000" fill-rule="nonzero"/>
	<path id="Vector" d="M73.4893 8.55371C72.5645 21.1017 72.8857 16.774 72.8164 17.7103C74.4922 17.3937 78.0537 17.1742 78.9463 17.2089C78.6426 17.806 83.6191 8.0293 83.7686 7.73657C84.6113 8.22656 70.7363 0.165161 70.4521 0L68.1064 4.61694C67.8252 4.4386 72.5488 7.18823 72.832 7.3645C73.1133 7.53967 73.4912 8.02515 73.4893 8.55371Z" fill="#363C13" fill-opacity="1.000000" fill-rule="nonzero"/>
	<path id="Vector" d="M12.9473 57.8979C12.4404 57.6031 12.1387 57.4277 11.9775 57.3339C12.1924 57.4591 12.5928 57.6919 12.9473 57.8979C14.0215 58.5227 15.9883 59.6665 19.3877 61.6434C29.8838 43.4781 32.957 38.1602 33.7295 36.822C33.7324 36.8174 33.7383 36.8079 33.7451 36.7947C33.7617 36.7667 33.7852 36.726 33.8115 36.6797C33.8047 36.6919 33.7979 36.7047 33.792 36.715C33.8408 36.6296 33.8779 36.5658 33.9043 36.5204C33.915 36.5012 33.9258 36.4816 33.9336 36.4688C33.9424 36.4547 33.9492 36.442 33.96 36.4242C30.1152 34.1871 33.0879 35.9171 20.6328 28.6699L6.06836 53.905C14.6982 58.9187 14.1074 58.5737 12.9473 57.8979Z" fill="#363C13" fill-opacity="1.000000" fill-rule="nonzero"/>
	<path id="Vector" d="M48.6055 29.0571L48.0508 22.4923L35.2705 15.0662L35.8232 21.6301L48.6055 29.0571Z" fill="#363C13" fill-opacity="1.000000" fill-rule="nonzero"/>
	<path id="Vector" d="M12.9424 83.1749L0 75.6532C-0.00390625 74.1283 0.0634766 98.1953 0.0644531 98.4769C-0.779297 97.9872 12.7227 105.824 13.0068 105.989L12.9424 83.1749Z" fill="#363C13" fill-opacity="1.000000" fill-rule="nonzero"/>
	<path id="Vector" d="M22.752 104.45C22.4971 104.625 15.3867 109.501 15.1182 109.656C14.6514 109.925 14.0449 109.829 13.7637 109.682C7.25098 105.898 9.49707 107.203 9.01074 106.921L6.30176 111.101L19.6182 118.84L25.3984 109.958C24.3662 108.345 23.4805 106.5 22.752 104.45Z" fill="#363C13" fill-opacity="1.000000" fill-rule="nonzero"/>
	<path id="Vector" d="M41.626 122.255L48.458 126.211L48.9482 119.401C46.7754 119.812 44.7275 119.99 42.8242 119.905L41.626 122.255Z" fill="#363C13" fill-opacity="1.000000" fill-rule="nonzero"/>
	<path id="Vector" d="M93.5479 71.4111C93.3955 71.0701 93.3848 70.6823 93.5186 70.3329C94.9658 66.5774 96.1289 62.6725 96.9756 58.7266C97.0674 58.2991 97.3545 57.9387 97.749 57.7523L106.038 53.8434L105.974 31.306L99.0684 36.0056C98.6963 36.2563 98.2295 36.318 97.8066 36.1659C97.3838 36.0153 97.0596 35.6713 96.9316 35.2397C96.0986 32.3981 94.9629 29.9469 93.5576 27.9561C93.2275 27.4875 93.2148 26.8655 93.5273 26.3832C93.3057 26.7242 99.4531 17.2559 99.7324 16.8252L86.2188 9.14392C86.5625 8.47083 81.1689 19.0398 81.0244 19.3215C80.7656 19.8312 80.2314 20.149 79.6543 20.0834C75.1943 19.7081 72.0225 20.8835 71.2754 20.8835C70.6055 20.8835 69.9062 20.3494 69.9004 19.4932C69.8955 18.9884 69.708 21.7375 70.4922 11.0934L51.8594 21.8505L50.8691 22.4221L51.6396 31.5116C51.665 31.8156 51.499 32.3828 51.1846 32.6693C46.5361 36.8843 44.2939 39.8715 42.8652 41.5039C42.4756 41.9729 41.5537 42.2174 40.8975 41.6998C41.1904 41.933 36.5869 38.2689 36.3037 38.0441C36.2246 38.1805 36.1738 38.2693 36.1367 38.3324C36.1484 38.3126 36.1602 38.2924 36.1729 38.2705C36.1484 38.3132 36.1221 38.3586 36.0889 38.4165C36.0918 38.4116 36.0957 38.4033 36.0996 38.3973C36.0684 38.4514 36.0684 38.4517 36.0889 38.4165C35.3418 39.7069 32.3281 44.9119 21.9443 62.8506C21.6035 62.7209 27.1777 64.8351 27.4688 64.9456C27.8174 65.0784 28.0996 65.3456 28.252 65.6868C28.4033 66.028 28.4121 66.417 28.2773 66.765C27.6572 68.361 25.7207 74.1215 24.8115 78.3481C24.7275 78.7396 24.3125 79.2057 24.0312 79.3387C24.5625 79.0876 16.0303 83.1201 15.749 83.2532L15.8135 105.786C15.3643 106.092 22.4346 101.263 22.7158 101.07C22.9053 100.943 23.1182 100.867 23.3369 100.84C23.5537 100.812 23.7764 100.834 23.9893 100.909C24.4111 101.058 24.7354 101.402 24.8633 101.832C25.7109 104.705 26.8447 107.165 28.2295 109.141C28.2793 109.211 28.2705 109.299 28.3057 109.376C28.5059 109.808 28.5254 110.306 28.2588 110.715L22.0547 120.254L35.5625 127.97C35.2324 128.62 40.415 118.432 40.7305 117.812C40.8438 117.59 41.0283 117.43 41.2285 117.299C41.4814 117.13 41.7744 117.023 42.1064 117.049C44.8174 117.272 47.6973 116.875 50.1475 116.265C50.582 116.153 51.0459 116.264 51.3887 116.553C51.7324 116.843 51.918 117.279 51.8848 117.729L51.2891 126.008L70.915 114.677L70.127 105.601C70.0889 105.164 70.2568 104.734 70.582 104.44C73.5654 101.736 76.3633 98.7562 78.8984 95.5844C79.1309 95.2926 79.4697 95.1062 79.8408 95.0651C80.207 95.024 80.584 95.1337 80.874 95.3666L85.4932 99.0796L99.8398 74.2281L94.333 72.1497C93.9834 72.0182 93.7012 71.7523 93.5479 71.4111ZM61.9814 97.2819C47.502 105.644 35.5479 98.6848 35.4922 82.3258C35.4639 66.5559 46.6318 47.2505 60.4375 39.2812C74.6924 31.0596 86.6182 37.9344 86.6465 54.4058C86.7021 70.1757 75.6465 89.3969 61.9814 97.2819Z" fill="#363C13" fill-opacity="1.000000" fill-rule="nonzero"/>
	<path id="Vector" d="M20.418 77.9203L7.61621 70.4805L1.58691 73.3184L14.4072 80.7773L20.418 77.9203Z" fill="#363C13" fill-opacity="1.000000" fill-rule="nonzero"/>
	<path id="Vector" d="M9.30273 68.2153L22.5146 75.8936C23.3057 72.6077 24.71 68.2922 25.1543 67.0747C25.5293 67.2195 19.4834 64.8876 19.1934 64.7756L11.5352 60.3254C10.6299 62.969 9.89941 65.609 9.30273 68.2153Z" fill="#363C13" fill-opacity="1.000000" fill-rule="nonzero"/>
</svg>
