<svg width="84.234375" height="128.000000" viewBox="0 0 84.2344 128" fill="none" xmlns="http://www.w3.org/2000/svg" xmlns:xlink="http://www.w3.org/1999/xlink">
	<desc>
			Created with Pixso.
	</desc>
	<defs/>
	<path id="Vector" d="M41.7627 1.89661C43.4551 1.21741 52.2275 -1.97327 58.7422 1.83679L68.9697 7.75903C66.1885 7.81787 61.335 8.57727 58.6602 9.91467L39.3994 21.0363C39.0195 20.8146 23.083 11.5345 24.0996 12.1261L41.7627 1.89661ZM17.4189 19.7435L21.999 17.0798C22.4287 16.8313 22.6924 16.3735 22.6924 15.8777L22.6924 14.5265L37.9971 23.4402L38.0137 25.6195L32.1211 29.0249L30.4561 27.3785C30.3721 27.2958 30.2793 27.2238 30.1768 27.1653L17.4189 19.7435ZM11.3691 19.4583C11.6387 19.615 27.7197 28.9534 26.7031 28.363L16.7119 34.1315L1.37793 25.2279L11.3691 19.4583ZM0 27.6455L15.3213 36.5413L15.3711 58.5221L0.0732422 49.6265L0 27.6455ZM37.7607 46.4398L37.749 50.9052L33.9014 48.6648L37.7607 46.4398ZM54.2861 125.643C48.9297 128.777 40.2012 128.785 34.8223 125.67C32.4365 124.282 31.1221 122.546 31.1221 120.789L31.2979 90.6462C31.3232 90.6613 31.3477 90.6748 31.3721 90.6897C38.6357 94.8788 50.4395 94.8828 57.709 90.6775C57.8535 90.5892 57.9951 90.5023 58.1328 90.4167C58.042 98.652 57.9482 112.628 57.8809 120.863C57.8809 122.618 56.6064 124.313 54.2861 125.643ZM60.7549 81.4301L60.7197 82.3347C60.7197 83.818 59.9805 85.2822 58.541 86.6094C52.9648 92.1855 37.6934 92.8424 30.8174 86.9164C29.1416 85.5132 28.2559 83.89 28.2559 82.2831L28.3154 80.8663C28.3213 80.8705 28.3232 80.8759 28.3291 80.8813C29.3262 81.9227 30.4131 82.7173 31.6758 83.4567C35.3682 85.5839 40.1006 86.6473 44.835 86.6473C49.2764 86.6473 54.1025 85.7002 57.9893 83.458C59.332 82.6865 60.1104 82.0236 60.7549 81.4301ZM56.5195 69.0463C62.5967 72.545 62.3389 77.7483 56.6006 81.047C50.1162 84.7865 39.5537 84.7878 33.0752 81.0511C27.0742 77.5504 27.0498 72.5023 32.9854 69.0192C34.3682 68.2191 35.9766 67.5698 37.7041 67.1094L37.6855 76.0756C37.6855 78.379 39.8857 79.8596 42.1641 80.4028C43.9482 80.829 47.0439 80.8256 49.2285 79.5475C50.6543 78.6836 51.4639 77.4774 51.5098 76.1041L51.5371 67.0676C53.3877 67.5415 55.0869 68.2145 56.5195 69.0463ZM48.8047 50.3899C48.792 54.4613 48.7236 77.4932 48.7285 76.058C48.7178 76.403 48.3643 76.8186 47.8076 77.1569C46.1094 78.1484 43.1104 78.1484 41.3965 77.1595C40.8066 76.8104 40.4668 76.4152 40.4668 76.0756C40.4678 75.8088 40.5195 54.4519 40.5186 54.9972C40.5244 54.9958 40.5312 54.9917 40.5371 54.9902C40.7969 54.9288 41.0781 54.8269 41.3848 54.6644L48.8047 50.3899ZM57.2588 28.5807L56.7754 28.889C56.373 29.1431 56.1279 29.5845 56.1279 30.0613L56.1016 42.0266C56.1016 42.4899 55.6914 43.2112 55.2939 43.4366L40.5283 51.9293L40.5508 44.033C40.5537 43.5358 40.2881 43.0753 39.8584 42.8253C39.4268 42.5781 38.8965 42.5768 38.4648 42.824L31.8984 46.6083C31.6846 46.7319 31.5049 46.9126 31.3828 47.1285L30.6602 48.4081C30.4805 48.7266 28.0781 52.9955 28.2314 52.7234L18.1523 58.537L18.1035 36.5417L29.2568 30.1053L30.9209 31.7483C31.29 32.1123 32.0303 32.2885 32.5938 31.9642L40.1055 27.6244C40.6016 27.3376 40.8008 26.8048 40.8008 26.4196L40.8008 23.4421L60.1895 12.2999C60.5264 12.2261 69.9961 8.46704 76.8564 12.326C81.3818 14.9768 83.8574 20.4904 84.2344 28.7396C75.9639 22.6698 67.0469 22.2963 57.2588 28.5807Z" fill="#363C13" fill-opacity="1.000000" fill-rule="nonzero"/>
</svg>
