<svg width="32.000000" height="32.000000" viewBox="0 0 32 32" fill="none" xmlns="http://www.w3.org/2000/svg" xmlns:xlink="http://www.w3.org/1999/xlink">
	<desc>
			Created with Pixso.
	</desc>
	<defs/>
	<path id="Vector" d="M16 18.8936C13.1602 18.8936 10.8401 16.5869 10.8401 13.7335C10.8401 10.8802 13.1602 8.58691 16 8.58691C18.8401 8.58691 21.1602 10.8936 21.1602 13.7469C21.1602 16.6002 18.8401 18.8936 16 18.8936ZM16 10.5869C14.2668 10.5869 12.8401 12.0002 12.8401 13.7469C12.8401 15.4935 14.2534 16.9069 16 16.9069C17.7468 16.9069 19.1602 15.4935 19.1602 13.7469C19.1602 12.0002 17.7334 10.5869 16 10.5869Z" fill="#FFFFFF" fill-opacity="1.000000" fill-rule="nonzero"/>
	<path id="Vector" d="M16 30.3466C14.0266 30.3466 12.04 29.5999 10.4934 28.1199C6.56006 24.3331 2.21338 18.2932 3.85327 11.1064C5.33325 4.58655 11.0266 1.6665 16 1.6665C16 1.6665 16 1.6665 16.0134 1.6665C20.9866 1.6665 26.6799 4.58655 28.1599 11.1199C29.7866 18.3065 25.4399 24.3331 21.5066 28.1199C19.96 29.5999 17.9734 30.3466 16 30.3466ZM16 3.6665C12.1199 3.6665 7.1333 5.73315 5.81323 11.5465C4.37329 17.8265 8.32007 23.2399 11.8933 26.6665C14.2 28.8932 17.8132 28.8932 20.1199 26.6665C23.6799 23.2399 27.6267 17.8265 26.2134 11.5465C24.8799 5.73315 19.8799 3.6665 16 3.6665Z" fill="#FFFFFF" fill-opacity="1.000000" fill-rule="nonzero"/>
	<g opacity="0.000000"/>
</svg>
