<svg width="91.875732" height="169.813965" viewBox="0 0 91.8757 169.814" fill="none" xmlns="http://www.w3.org/2000/svg" xmlns:xlink="http://www.w3.org/1999/xlink">
	<desc>
			Created with Pixso.
	</desc>
	<defs/>
	<path id="Path 1999" d="M0 145.593L0.0529785 165.048L8.1604 169.76C8.1604 170.998 8.10767 150.683 8.10767 150.304L0 145.593Z" fill="#30312A" fill-opacity="1.000000" fill-rule="nonzero"/>
	<path id="Path 2000" d="M35.2385 136.791L35.3127 156.247C34.8672 156.505 13.2185 169.006 11.8813 169.784C11.8813 169.377 11.8035 151.634 11.8425 150.293C12.2139 150.071 33.8979 137.573 35.2385 136.791Z" fill="#30312A" fill-opacity="1.000000" fill-rule="nonzero"/>
	<path id="Path 2001" d="M89.9556 100.898L66.5205 114.439L58.4126 109.713L69.3787 103.346L69.3787 94.5306L18.1965 124.103L18.2356 132.879L25.2642 128.825L33.3718 133.551L9.97583 147.089L1.83984 142.366L14.4895 135.037L14.4895 123.01C14.4741 122.677 14.553 122.347 14.717 122.057C14.8809 121.768 15.1233 121.53 15.4163 121.372L41.9746 106.048L41.9392 83.9537L38.1826 81.796C34.1641 77.2223 15.2676 54.9122 15.2324 41.8488C15.6462 34.0569 17.8975 26.4734 21.8018 19.7177C25.7063 12.9619 31.1533 7.22534 37.698 2.97681C43.425 -0.334229 48.6355 -0.889526 52.4277 1.34265L61.0588 6.32666C57.8484 6.98083 54.7842 8.21545 52.0171 9.97009C45.0818 14.5706 39.3264 20.7389 35.217 27.9762C31.1079 35.2135 28.7598 43.3163 28.3628 51.6294C28.3982 60.6674 36.0991 73.1295 42.4595 81.8314C42.9441 82.4646 43.3896 83.0978 43.8743 83.731C44.1714 84.0847 44.4297 84.4738 44.6914 84.7921C45.0273 85.199 45.3601 85.6483 45.6572 86.0552L45.6572 86.094L45.696 103.873L70.3196 89.6631C70.6023 89.4998 70.9233 89.4139 71.2498 89.4139C71.5764 89.4139 71.8972 89.4998 72.1802 89.6631C72.4561 89.8309 72.6853 90.0652 72.8474 90.3445C73.0093 90.6238 73.0984 90.9393 73.1069 91.2621L73.146 101.167L81.8513 96.1471L89.9556 100.898Z" fill="#30312A" fill-opacity="1.000000" fill-rule="nonzero"/>
	<path id="Path 2002" d="M91.8225 104.127L68.3948 117.654C68.3948 116.363 68.4478 136.696 68.4514 137.131L91.8757 123.608L91.8225 104.127Z" fill="#30312A" fill-opacity="1.000000" fill-rule="nonzero"/>
	<path id="Path 2003" d="M56.5669 112.932L56.6235 132.387L64.731 137.099C64.731 138.394 64.6746 118.033 64.6746 117.644L56.5669 112.932Z" fill="#30312A" fill-opacity="1.000000" fill-rule="nonzero"/>
	<path id="Path 2004" d="M36.6648 33.3557C33.813 39.0422 32.2512 45.2878 32.0908 51.6472C32.1155 62.7651 46.1165 81.0746 53.3149 89.589C58.0586 78.4675 75.2466 37.3317 75.2078 24.6149C75.1687 11.0244 65.9751 5.60864 53.5449 13.4191C46.2068 18.4025 40.3699 25.2964 36.6648 33.3557ZM65.1899 31.7887C65.0315 35.469 63.989 39.0566 62.1504 42.2485C60.3118 45.4406 57.7314 48.1427 54.6274 50.1262C47.9312 53.9961 42.1299 50.5366 42.0911 42.9844C42.2712 39.3035 43.3279 35.7188 45.1738 32.5291C47.0198 29.3394 49.6013 26.6368 52.7031 24.6466C59.3145 20.8546 65.1899 24.2012 65.1899 31.7887Z" fill="#30312A" fill-opacity="1.000000" fill-rule="nonzero"/>
</svg>
