<svg width="24.214233" height="24.214355" viewBox="0 0 24.2142 24.2144" fill="none" xmlns="http://www.w3.org/2000/svg" xmlns:xlink="http://www.w3.org/1999/xlink">
	<desc>
			Created with Pixso.
	</desc>
	<defs/>
	<rect id="sms" width="24.214285" height="24.214285" fill="#FFFFFF" fill-opacity="0"/>
	<path id="Vector" d="M17.1517 21.4395L7.0625 21.4395C3.37988 21.4395 1.26111 19.3208 1.26111 15.6382L1.26111 8.57568C1.26111 4.89307 3.37988 2.77441 7.0625 2.77441L17.1517 2.77441C20.8344 2.77441 22.9531 4.89307 22.9531 8.57568L22.9531 15.6382C22.9531 19.3208 20.8344 21.4395 17.1517 21.4395ZM7.0625 4.2876C4.17688 4.2876 2.77454 5.69043 2.77454 8.57568L2.77454 15.6382C2.77454 18.5239 4.17688 19.9263 7.0625 19.9263L17.1517 19.9263C20.0372 19.9263 21.4397 18.5239 21.4397 15.6382L21.4397 8.57568C21.4397 5.69043 20.0372 4.2876 17.1517 4.2876L7.0625 4.2876Z" fill="#363C13" fill-opacity="1.000000" fill-rule="nonzero"/>
	<path id="Vector" d="M12.1069 12.9849C11.2594 12.9849 10.4019 12.7227 9.74609 12.188L6.58813 9.66553C6.26526 9.40332 6.20471 8.9292 6.46704 8.60645C6.72937 8.2832 7.20349 8.22266 7.52637 8.48535L10.6843 11.0073C11.4512 11.623 12.7527 11.623 13.5194 11.0073L16.6774 8.48535C17.0002 8.22266 17.4845 8.27344 17.7367 8.60645C17.999 8.9292 17.9486 9.41357 17.6157 9.66553L14.4578 12.188C13.812 12.7227 12.9545 12.9849 12.1069 12.9849Z" fill="#363C13" fill-opacity="1.000000" fill-rule="nonzero"/>
	<g opacity="0.000000"/>
</svg>
