<svg width="24.214233" height="24.214355" viewBox="0 0 24.2142 24.2144" fill="none" xmlns="http://www.w3.org/2000/svg" xmlns:xlink="http://www.w3.org/1999/xlink">
	<desc>
			Created with Pixso.
	</desc>
	<defs/>
	<rect id="call" width="24.214285" height="24.214285" fill="#FFFFFF" fill-opacity="0"/>
	<path id="Vector" d="M17.6057 22.9529C16.4657 22.9529 15.265 22.6804 14.024 22.156C12.8134 21.6414 11.5925 20.9351 10.402 20.0774C9.22156 19.2097 8.08142 18.2412 7.00195 17.1819C5.9325 16.1023 4.96387 14.9622 4.10632 13.792C3.23865 12.5811 2.54248 11.3704 2.0481 10.2002C1.52344 8.94897 1.26111 7.73828 1.26111 6.59814C1.26111 5.81128 1.40234 5.0647 1.6748 4.36841C1.95728 3.6521 2.41125 2.98633 3.02673 2.41113C3.80359 1.64429 4.69141 1.26099 5.63989 1.26099C6.03333 1.26099 6.43689 1.35181 6.77991 1.51318C7.17346 1.69482 7.50635 1.96729 7.74854 2.33057L10.0892 5.62964C10.3011 5.92212 10.4625 6.20483 10.5735 6.4873C10.7047 6.78979 10.7753 7.09253 10.7753 7.38525C10.7753 7.76855 10.6643 8.14185 10.4524 8.49512C10.3011 8.76733 10.0691 9.06006 9.77649 9.35254L9.09045 10.0688C9.10046 10.0991 9.1106 10.1194 9.12061 10.1396C9.2417 10.3513 9.48389 10.7146 9.948 11.2595C10.4424 11.8245 10.9065 12.3391 11.3706 12.8132C11.9658 13.3984 12.4602 13.8625 12.9243 14.2458C13.4994 14.7302 13.8727 14.9724 14.0947 15.0833L14.0745 15.1338L14.811 14.4072C15.1238 14.0945 15.4265 13.8625 15.719 13.7112C16.2739 13.3682 16.9802 13.3076 17.6865 13.6001C17.9487 13.7112 18.2313 13.8625 18.5339 14.0745L21.8837 16.4556C22.257 16.7078 22.5293 17.0305 22.6908 17.4138C22.842 17.7974 22.9127 18.1504 22.9127 18.5037C22.9127 18.9878 22.8018 19.4722 22.5898 19.9263C22.3779 20.3801 22.1156 20.7737 21.7827 21.137C21.2076 21.7725 20.582 22.2266 19.8557 22.519C19.1595 22.8015 18.4028 22.9529 17.6057 22.9529ZM5.63989 2.77441C5.08496 2.77441 4.57043 3.0166 4.07605 3.50073C3.61194 3.93457 3.28906 4.40894 3.08728 4.92334C2.87537 5.448 2.77454 6.00293 2.77454 6.59814C2.77454 7.53662 2.99646 8.55542 3.44043 9.60474C3.89441 10.6743 4.53003 11.7842 5.33716 12.894C6.14429 14.0037 7.0625 15.0833 8.07141 16.1023C9.08032 17.1011 10.1699 18.0293 11.2899 18.8467C12.3795 19.6436 13.4994 20.2893 14.6093 20.7534C16.3345 21.49 17.9487 21.6616 19.2805 21.1067C19.7952 20.8948 20.2491 20.5718 20.6628 20.1077C20.8949 19.8555 21.0764 19.583 21.2278 19.2603C21.3489 19.0081 21.4094 18.7456 21.4094 18.4834C21.4094 18.322 21.3792 18.1606 21.2985 17.979C21.2682 17.9185 21.2076 17.8074 21.0159 17.6763L17.6663 15.2952C17.4645 15.1541 17.2828 15.053 17.1113 14.9824C16.8894 14.8916 16.7986 14.8008 16.4556 15.0127C16.2538 15.1135 16.0721 15.2649 15.8704 15.4668L15.1036 16.2234C14.7101 16.6067 14.1047 16.6975 13.6406 16.5261L13.3683 16.405C12.9546 16.1831 12.4703 15.8401 11.9355 15.386C11.4513 14.9724 10.9266 14.488 10.291 13.8625C9.79663 13.3582 9.30225 12.8232 8.78772 12.228C8.31348 11.6731 7.97046 11.199 7.75867 10.8054L7.63757 10.5027C7.57703 10.2708 7.55676 10.1396 7.55676 9.99829C7.55676 9.63501 7.68799 9.31226 7.94019 9.06006L8.6969 8.27295C8.89868 8.07129 9.05005 7.87964 9.15088 7.70801C9.23169 7.5769 9.26196 7.46582 9.26196 7.36499C9.26196 7.28418 9.23169 7.16333 9.18115 7.04224C9.1106 6.88062 8.99963 6.69922 8.8584 6.50732L6.51758 3.19824C6.41675 3.05688 6.29565 2.95605 6.14429 2.88525C5.98291 2.8147 5.8114 2.77441 5.63989 2.77441ZM14.0745 15.1438L13.9131 15.8298L14.1854 15.1238C14.135 15.1135 14.0947 15.1238 14.0745 15.1438Z" fill="#363C13" fill-opacity="1.000000" fill-rule="nonzero"/>
	<g opacity="0.000000"/>
</svg>
