<svg width="24.214233" height="24.214355" viewBox="0 0 24.2142 24.2144" fill="none" xmlns="http://www.w3.org/2000/svg" xmlns:xlink="http://www.w3.org/1999/xlink">
	<desc>
			Created with Pixso.
	</desc>
	<defs/>
	<rect id="clock" width="24.214285" height="24.214285" fill="#FFFFFF" fill-opacity="0"/>
	<path id="Vector" d="M12.1071 22.9529C6.12415 22.9529 1.26111 18.0898 1.26111 12.1069C1.26111 6.12402 6.12415 1.26099 12.1071 1.26099C18.0901 1.26099 22.9531 6.12402 22.9531 12.1069C22.9531 18.0898 18.0901 22.9529 12.1071 22.9529ZM12.1071 2.77441C6.96155 2.77441 2.77454 6.96143 2.77454 12.1069C2.77454 17.2524 6.96155 21.4395 12.1071 21.4395C17.2527 21.4395 21.4397 17.2524 21.4397 12.1069C21.4397 6.96143 17.2527 2.77441 12.1071 2.77441Z" fill="#363C13" fill-opacity="1.000000" fill-rule="nonzero"/>
	<path id="Vector" d="M15.8502 16.0723C15.7191 16.0723 15.5879 16.042 15.4668 15.9612L12.3391 14.0947C11.5623 13.6306 10.9872 12.6116 10.9872 11.7136L10.9872 7.5769C10.9872 7.16333 11.3302 6.82031 11.7439 6.82031C12.1576 6.82031 12.5006 7.16333 12.5006 7.5769L12.5006 11.7136C12.5006 12.0769 12.8032 12.6116 13.116 12.7932L16.2437 14.6597C16.6069 14.8716 16.7179 15.3357 16.506 15.699C16.3547 15.9409 16.1024 16.0723 15.8502 16.0723Z" fill="#363C13" fill-opacity="1.000000" fill-rule="nonzero"/>
	<g opacity="0.000000"/>
</svg>
