<svg width="24.214233" height="24.214355" viewBox="0 0 24.2142 24.2144" fill="none" xmlns="http://www.w3.org/2000/svg" xmlns:xlink="http://www.w3.org/1999/xlink">
	<desc>
			Created with Pixso.
	</desc>
	<defs/>
	<rect id="location" width="24.214285" height="24.214285" fill="#FFFFFF" fill-opacity="0"/>
	<path id="Vector" d="M12.1071 14.2964C9.95801 14.2964 8.20251 12.5513 8.20251 10.3921C8.20251 8.23291 9.95801 6.49756 12.1071 6.49756C14.2561 6.49756 16.0116 8.24316 16.0116 10.4023C16.0116 12.561 14.2561 14.2964 12.1071 14.2964ZM12.1071 8.01074C10.7954 8.01074 9.71594 9.08057 9.71594 10.4023C9.71594 11.7236 10.7854 12.7935 12.1071 12.7935C13.4287 12.7935 14.4982 11.7236 14.4982 10.4023C14.4982 9.08057 13.4187 8.01074 12.1071 8.01074Z" fill="#363C13" fill-opacity="1.000000" fill-rule="nonzero"/>
	<path id="Vector" d="M12.1071 22.9634C10.6139 22.9634 9.1106 22.3984 7.94019 21.2783C4.96387 18.4131 1.6748 13.8428 2.91577 8.4043C4.03564 3.4707 8.34375 1.26123 12.1071 1.26123C12.1071 1.26123 12.1071 1.26123 12.1172 1.26123C15.8805 1.26123 20.1886 3.4707 21.3085 8.41455C22.5394 13.8525 19.2502 18.4131 16.2739 21.2783C15.1036 22.3984 13.6003 22.9634 12.1071 22.9634ZM12.1071 2.77441C9.17114 2.77441 5.39771 4.33838 4.39893 8.7373C3.3092 13.4893 6.29565 17.5859 8.99963 20.1787C10.745 21.8638 13.4792 21.8638 15.2247 20.1787C17.9185 17.5859 20.9049 13.4893 19.8354 8.7373C18.8265 4.33838 15.0431 2.77441 12.1071 2.77441Z" fill="#363C13" fill-opacity="1.000000" fill-rule="nonzero"/>
	<g opacity="0.000000"/>
</svg>
