<svg width="24.214233" height="24.214355" viewBox="0 0 24.2142 24.2144" fill="none" xmlns="http://www.w3.org/2000/svg" xmlns:xlink="http://www.w3.org/1999/xlink">
	<desc>
			Created with Pixso.
	</desc>
	<defs/>
	<rect id="directbox-default-2" width="24.214285" height="24.214285" fill="#FFFFFF" fill-opacity="0"/>
	<path id="Vector" d="M16.1429 22.9534L8.07153 22.9534C2.27014 22.9534 2.27014 19.876 2.27014 17.1519L2.27014 16.1431C2.27014 13.8931 2.27014 11.3506 7.0625 11.3506C8.26318 11.3506 8.70715 11.6431 9.33264 12.1072C9.36292 12.1375 9.40332 12.1577 9.43359 12.198L10.4626 13.2878C11.3303 14.2058 12.9043 14.2058 13.772 13.2878L14.801 12.198C14.8313 12.1677 14.8616 12.1375 14.902 12.1072C15.5275 11.6331 15.9714 11.3506 17.172 11.3506C21.9645 11.3506 21.9645 13.8931 21.9645 16.1431L21.9645 17.1519C21.9442 21.0061 19.9971 22.9534 16.1429 22.9534ZM7.0625 12.864C3.78357 12.864 3.78357 13.8931 3.78357 16.1431L3.78357 17.1519C3.78357 19.9165 3.78357 21.4399 8.07153 21.4399L16.1429 21.4399C19.1495 21.4399 20.4309 20.1584 20.4309 17.1519L20.4309 16.1431C20.4309 13.8931 20.4309 12.864 17.1519 12.864C16.4254 12.864 16.274 12.9548 15.8402 13.2776L14.8616 14.3169C14.1351 15.0837 13.1565 15.5073 12.1072 15.5073C11.0579 15.5073 10.0792 15.0837 9.35278 14.3169L8.37415 13.2776C7.94031 12.9548 7.78894 12.864 7.0625 12.864Z" fill="#363C13" fill-opacity="1.000000" fill-rule="nonzero"/>
	<path id="Vector" d="M19.1697 12.8638C18.756 12.8638 18.413 12.5205 18.413 12.1069L18.413 6.05347C18.413 3.80347 18.413 2.77441 15.1339 2.77441L9.08032 2.77441C5.80139 2.77441 5.80139 3.80347 5.80139 6.05347L5.80139 12.1069C5.80139 12.5205 5.45837 12.8638 5.04468 12.8638C4.63098 12.8638 4.28796 12.5205 4.28796 12.1069L4.28796 6.05347C4.28796 3.80347 4.28796 1.26099 9.08032 1.26099L15.1339 1.26099C19.9264 1.26099 19.9264 3.80347 19.9264 6.05347L19.9264 12.1069C19.9264 12.5205 19.5834 12.8638 19.1697 12.8638Z" fill="#363C13" fill-opacity="1.000000" fill-rule="nonzero"/>
	<path id="Vector" d="M14.0039 10.0691L10.6442 10.0691C10.2305 10.0691 9.88745 9.72607 9.88745 9.31226C9.88745 8.89868 10.2305 8.55566 10.6442 8.55566L14.0039 8.55566C14.4175 8.55566 14.7606 8.89868 14.7606 9.31226C14.7606 9.72607 14.4276 10.0691 14.0039 10.0691Z" fill="#363C13" fill-opacity="1.000000" fill-rule="nonzero"/>
	<path id="Vector" d="M14.8514 7.04224L9.80676 7.04224C9.39307 7.04224 9.05005 6.69922 9.05005 6.2854C9.05005 5.87183 9.39307 5.52881 9.80676 5.52881L14.8514 5.52881C15.265 5.52881 15.608 5.87183 15.608 6.2854C15.608 6.69922 15.2751 7.04224 14.8514 7.04224Z" fill="#363C13" fill-opacity="1.000000" fill-rule="nonzero"/>
	<g opacity="0.000000"/>
</svg>
