<svg width="114.458008" height="169.287231" viewBox="0 0 114.458 169.287" fill="none" xmlns="http://www.w3.org/2000/svg" xmlns:xlink="http://www.w3.org/1999/xlink">
	<desc>
			Created with Pixso.
	</desc>
	<defs/>
	<path id="Path 1865" d="M42.0371 76.7112L47.2195 68.8475C47.4019 68.5759 47.6523 68.3568 47.946 68.2122C48.2395 68.0675 48.5659 68.0024 48.8926 68.0234C49.2195 68.0483 49.5342 68.1598 49.8037 68.3462C50.0735 68.5327 50.2888 68.7875 50.4277 69.0846L55.6877 80.4607L55.8115 40.7681L39.5398 68.7804L42.0371 76.7112Z" fill="#30312A" fill-opacity="1.000000" fill-rule="nonzero"/>
	<path id="Path 1866" d="M42.9753 82.0172C42.783 82.3081 42.5122 82.5385 42.1943 82.6815C41.8765 82.8247 41.5244 82.8748 41.1792 82.8259C40.834 82.777 40.5098 82.6312 40.2441 82.4054C39.9785 82.1796 39.7822 81.8831 39.6785 81.5503L37.0574 73.1313L0 137.2L55.5789 169.287L55.6921 89.1838L48.4795 73.6584L42.9753 82.0172Z" fill="#30312A" fill-opacity="1.000000" fill-rule="nonzero"/>
	<path id="Path 1867" d="M59.4287 83.5276L64.1194 77.5671C64.2693 77.3766 64.4556 77.2175 64.6672 77.099C64.8787 76.9806 65.1118 76.905 65.3525 76.8768C65.5935 76.8485 65.8376 76.868 66.071 76.9343C66.3042 77.0006 66.5222 77.1123 66.7122 77.2629L70.5291 80.2803L75.3503 68.6884L59.3687 40.7681L59.457 68.501L59.4287 83.5276Z" fill="#30312A" fill-opacity="1.000000" fill-rule="nonzero"/>
	<path id="Path 1868" d="M77.6587 72.7317L72.9929 83.938C72.8833 84.1986 72.7151 84.4304 72.5012 84.6156C72.2876 84.8008 72.0339 84.9342 71.7605 85.0057C71.4868 85.0771 71.2004 85.0847 70.9233 85.0278C70.6465 84.9708 70.3862 84.851 70.1631 84.6774L65.8831 81.2992L59.4272 89.4988L59.2751 169.266L114.458 137.193L77.6587 72.7317Z" fill="#30312A" fill-opacity="1.000000" fill-rule="nonzero"/>
	<path id="Path 1869" d="M59.3684 23.8099C59.7969 24.1469 60.2473 24.4552 60.7161 24.7332C62.6233 25.723 64.699 26.3469 66.8357 26.5726C68.5239 26.7443 70.1665 27.2238 71.6819 27.9875C73.0513 28.8367 74.2214 29.9707 75.113 31.3126C75.272 31.5411 75.4834 31.7279 75.7297 31.8573C75.9761 31.9866 76.2498 32.0546 76.5281 32.0555C76.7068 32.0493 76.8845 32.0256 77.0588 31.9847C77.4194 31.8713 77.7344 31.6451 77.9573 31.3396C78.1799 31.0341 78.2991 30.665 78.2966 30.2869L78.3674 13.6967C78.3704 13.33 78.259 12.9714 78.0493 12.6708C76.8613 10.9071 75.3042 9.42261 73.4861 8.31982C71.5977 7.31482 69.5305 6.68982 67.4016 6.48047C65.7012 6.31384 64.0461 5.83411 62.5203 5.06543C61.2739 4.29504 60.2009 3.2749 59.3684 2.06934L59.3684 1.76868C59.3684 1.29956 59.1821 0.849731 58.8503 0.518066C58.5186 0.186401 58.0688 0 57.5999 0C57.1306 0 56.6809 0.186401 56.3491 0.518066C56.0173 0.849731 55.8311 1.29956 55.8311 1.76868L55.8311 40.7681L59.3684 40.7681L59.3684 23.8099Z" fill="#30312A" fill-opacity="1.000000" fill-rule="nonzero"/>
</svg>
