<svg width="195.452637" height="166.352051" viewBox="0 0 195.453 166.352" fill="none" xmlns="http://www.w3.org/2000/svg" xmlns:xlink="http://www.w3.org/1999/xlink">
	<desc>
			Created with Pixso.
	</desc>
	<defs/>
	<path id="Vector" d="M58.3489 166.352L133.566 154.688L133.607 140.38L133.64 128.778L58.4236 140.482L58.3489 166.352Z" fill="#30312A" fill-opacity="1.000000" fill-rule="nonzero"/>
	<path id="Vector" d="M97.3845 122.147C96.9456 122.214 96.2942 122.057 96.0005 121.89L88.4514 117.549C74.2451 119.792 56.6067 117.659 44.6763 109.34C37.1438 104.061 33.4773 96.9833 34.6143 89.9198C34.9021 88.1635 35.6035 86.0935 36.5876 84.2986L36.6646 58.3003L20.448 60.8195L0.689697 104.088L56.7188 136.446L134.314 124.372L138.202 115.823L97.3845 122.147Z" fill="#30312A" fill-opacity="1.000000" fill-rule="nonzero"/>
	<path id="Vector" d="M94.9336 116.375L95.0144 91.0988L40.9097 59.8506L40.835 85.1641C92.0374 114.704 41.5857 85.5973 94.9336 116.375Z" fill="#30312A" fill-opacity="1.000000" fill-rule="nonzero"/>
	<path id="Vector" d="M143.224 115.045L137.895 126.758L137.839 146.644L152.902 113.538C152.492 113.602 142.592 115.143 143.224 115.045Z" fill="#30312A" fill-opacity="1.000000" fill-rule="nonzero"/>
	<path id="Vector" d="M0 133.911L54.1028 165.159L54.1753 139.885L0.0683594 108.637L0 133.911Z" fill="#30312A" fill-opacity="1.000000" fill-rule="nonzero"/>
	<path id="Vector" d="M99.2629 91.696L99.1899 117.567C166.594 107.104 151.711 109.422 174.407 105.902C174.413 104.044 174.483 78.7866 174.48 79.993C164.811 81.4974 182.148 78.7998 99.2629 91.696Z" fill="#30312A" fill-opacity="1.000000" fill-rule="nonzero"/>
	<path id="Vector" d="M178.735 77.9753L178.68 97.8859L195.396 61.2346L195.453 41.3276L178.735 77.9753Z" fill="#30312A" fill-opacity="1.000000" fill-rule="nonzero"/>
	<path id="Vector" d="M138.805 0L61.3311 12.0332L41.5288 55.2997L97.5579 87.6591C97.9858 87.5925 171.617 76.1373 175.153 75.5872L194.872 32.3601L138.805 0ZM150.888 60.6874C150.881 60.6925 150.878 60.7006 150.871 60.7054C144.185 65.5035 132.502 69.595 118.382 69.595C88.3096 69.595 62.6367 48.7108 81.5066 30.2625C97.7732 14.0427 138.544 13.9968 154.87 30.3226C164.098 39.2433 163.59 51.9026 150.888 60.6874Z" fill="#30312A" fill-opacity="1.000000" fill-rule="nonzero"/>
	<path id="Vector" d="M84.4922 33.2859C76.761 40.8452 78.4182 49.8029 86.8123 56.2151C87.1191 56.0221 87.4368 55.8312 87.7583 55.6382C105.823 45.2115 132.276 46.4116 148.007 55.437C148.549 55.7565 149.07 56.074 149.574 56.3936C158.095 49.897 159.684 40.8894 151.89 33.3523C137.266 18.7283 99.3333 18.4941 84.4922 33.2859Z" fill="#30312A" fill-opacity="1.000000" fill-rule="nonzero"/>
</svg>
