<svg width="32.000000" height="32.000000" viewBox="0 0 32 32" fill="none" xmlns="http://www.w3.org/2000/svg" xmlns:xlink="http://www.w3.org/1999/xlink">
	<desc>
			Created with Pixso.
	</desc>
	<defs/>
	<path id="Vector" d="M22.6667 28.3331L9.3335 28.3331C4.4668 28.3331 1.66675 25.5332 1.66675 20.6665L1.66675 11.3331C1.66675 6.46655 4.4668 3.6665 9.3335 3.6665L22.6667 3.6665C27.5334 3.6665 30.3335 6.46655 30.3335 11.3331L30.3335 20.6665C30.3335 25.5332 27.5334 28.3331 22.6667 28.3331ZM9.3335 5.6665C5.52002 5.6665 3.66675 7.5199 3.66675 11.3331L3.66675 20.6665C3.66675 24.4799 5.52002 26.3331 9.3335 26.3331L22.6667 26.3331C26.48 26.3331 28.3335 24.4799 28.3335 20.6665L28.3335 11.3331C28.3335 7.5199 26.48 5.6665 22.6667 5.6665L9.3335 5.6665Z" fill="#FFFFFF" fill-opacity="1.000000" fill-rule="nonzero"/>
	<path id="Vector" d="M15.9995 17.1599C14.8796 17.1599 13.7463 16.8134 12.8796 16.1067L8.7063 12.7733C8.27954 12.4266 8.19971 11.7999 8.54639 11.3733C8.89307 10.9467 9.51953 10.8666 9.94629 11.2133L14.1196 14.5466C15.1331 15.36 16.853 15.36 17.8662 14.5466L22.0396 11.2133C22.4663 10.8666 23.1062 10.9333 23.4397 11.3733C23.7864 11.7999 23.7197 12.4399 23.2795 12.7733L19.1062 16.1067C18.2529 16.8134 17.1196 17.1599 15.9995 17.1599Z" fill="#FFFFFF" fill-opacity="1.000000" fill-rule="nonzero"/>
	<g opacity="0.000000"/>
</svg>
