<svg width="106.108398" height="124.007568" viewBox="0 0 106.108 124.008" fill="none" xmlns="http://www.w3.org/2000/svg" xmlns:xlink="http://www.w3.org/1999/xlink">
	<desc>
			Created with Pixso.
	</desc>
	<defs/>
	<path id="Vector" d="M25.0176 55.8673C25.9863 55.2837 27.6904 54.3037 27.6143 54.3474L7.8418 42.8577L4.02246 45.0763C3.25 45.5344 2.48145 46.2701 1.81836 47.1598L21.2891 59.8264C22.1211 58.3752 23.5322 56.7568 25.0176 55.8673Z" fill="#363C13" fill-opacity="1.000000" fill-rule="nonzero"/>
	<path id="Vector" d="M0.555664 49.5527C0.230469 50.4193 0 51.2784 0 52.0535L0.189453 108.952C0.189453 109.871 0.442383 110.557 0.886719 110.838L19.916 121.876L19.7559 65.0916C19.7539 64.1954 19.915 63.2589 20.1992 62.3319L0.555664 49.5527Z" fill="#363C13" fill-opacity="1.000000" fill-rule="nonzero"/>
	<path id="Vector" d="M26.3799 58.1923C24.2061 59.5171 22.4541 62.6973 22.4541 65.0994C22.4551 65.3591 22.626 122.376 22.6191 122.113C22.665 123.895 23.5469 124.545 25.3105 123.521L29.1201 121.307L28.9365 56.6993C25.3545 58.7762 26.8115 57.9305 26.3799 58.1923Z" fill="#363C13" fill-opacity="1.000000" fill-rule="nonzero"/>
	<path id="Vector" d="M58.4941 24.1056L60.1602 25.073L60.1445 17.3746L58.4941 18.3302L58.4941 24.1056Z" fill="#363C13" fill-opacity="1.000000" fill-rule="nonzero"/>
	<path id="Vector" d="M39.0322 28.8175L39.0322 38.8574L42.1836 37.0424L42.1592 25.4507C42.1592 24.969 42.415 24.5228 42.8311 24.282C46.2012 22.3315 61.8135 13.2972 60.8125 13.8762C61.7012 13.3646 62.834 13.9973 62.834 15.041L62.8555 25.082L65.9854 23.2698L65.9609 11.6769C65.9609 8.84839 64.2861 8.24463 62.1338 9.49731L44.1523 19.9017C41.3584 21.5244 39.0322 25.5718 39.0322 28.8175Z" fill="#363C13" fill-opacity="1.000000" fill-rule="nonzero"/>
	<path id="Vector" d="M14.6729 38.906C14.4141 39.0552 10.2578 41.4531 10.5225 41.2999L30.2793 52.7794C30.5381 52.6292 34.6807 50.225 34.416 50.3783L14.6729 38.906Z" fill="#363C13" fill-opacity="1.000000" fill-rule="nonzero"/>
	<path id="Vector" d="M36.332 38.8389C36.3301 37.8088 36.3398 42.5703 36.3135 28.765C36.3271 25.2593 38.7871 19.8987 42.8027 17.5693C57.1572 9.26587 60.9287 7.073 61.2236 6.92542L60.5947 6.55823C59.916 6.16724 58.9209 6.30811 57.7988 6.96094L39.8145 17.368C37.0225 18.9738 34.666 23.0565 34.666 26.2838L34.6895 37.8807L36.332 38.8389Z" fill="#363C13" fill-opacity="1.000000" fill-rule="nonzero"/>
	<path id="Vector" d="M105.947 15.0424C105.941 13.0276 104.867 12.6437 103.305 13.4913C103.043 13.6334 98.1592 16.4618 98.418 16.3237L98.6016 80.9337L102.091 78.9061C104.278 77.6426 106.115 74.4692 106.107 71.9751L105.947 15.0424Z" fill="#363C13" fill-opacity="1.000000" fill-rule="nonzero"/>
	<path id="Vector" d="M31.627 55.1323L31.8086 119.725L35.96 117.329L35.7783 52.724C35.5166 52.8757 31.3623 55.2863 31.627 55.1323Z" fill="#363C13" fill-opacity="1.000000" fill-rule="nonzero"/>
	<path id="Vector" d="M91.5771 20.2988L91.7588 84.8975C92.0176 84.748 96.1758 82.3444 95.9102 82.4977L95.7285 17.8965C95.4697 18.0464 91.3125 20.4524 91.5771 20.2988Z" fill="#363C13" fill-opacity="1.000000" fill-rule="nonzero"/>
	<path id="Vector" d="M82.7773 0.141846C82.3379 -0.134521 81.6172 0.00366211 80.8193 0.464233L77.293 2.51221L97.0488 13.9937L101.828 11.2175L82.7773 0.141846Z" fill="#363C13" fill-opacity="1.000000" fill-rule="nonzero"/>
	<path id="Vector" d="M74.625 4.07849L71.333 5.97351L70.4746 6.47217L90.2285 17.9519C90.4873 17.8018 94.6318 15.3982 94.3672 15.5515L74.625 4.07849Z" fill="#363C13" fill-opacity="1.000000" fill-rule="nonzero"/>
	<path id="Vector" d="M67.793 8.02991L67.6914 8.08899C68.168 8.7959 68.6572 10.2167 68.6572 11.6742L68.6836 24.0437C68.6836 24.5255 68.4287 24.9717 68.0098 25.2125L62.1904 28.5801C62.1895 28.5809 62.1885 28.5824 62.1875 28.5833C61.7646 28.8269 61.2344 28.812 60.8418 28.5846C60.8408 28.5839 60.8379 28.5826 60.8369 28.5819L56.4697 26.0483C56.0537 25.8074 55.7988 25.3625 55.7988 24.8822L55.7988 19.8909L44.8584 26.2246L44.8818 37.8176C44.8818 38.3007 44.627 38.7468 44.208 38.9877C43.6035 39.334 46.3975 37.7313 38.2949 42.3744C37.8936 42.5823 37.5146 42.6008 37.0771 42.3748C36.8164 42.24 32.4062 39.6898 32.665 39.8195C32.252 39.5786 31.9971 39.1377 31.9971 38.6586L31.9756 28.8387L17.3408 37.3398L37.0986 48.8206L87.5508 19.5118L67.793 8.02991Z" fill="#363C13" fill-opacity="1.000000" fill-rule="nonzero"/>
	<path id="Vector" d="M38.4688 51.1573L38.6523 115.768C43.1914 113.131 86.6162 87.8983 89.0693 86.4728L88.8857 21.8625L38.4688 51.1573ZM83.7129 71.4777L78.9404 68.7579L73.3682 73.6954L71.8916 80.9669L76.6641 83.6866C76.2627 83.9849 75.8584 84.252 75.4541 84.4856C73.3057 85.7257 71.1582 86.0272 69.5117 85.0889C67.2627 83.8073 66.542 80.5526 67.3711 76.8013C66.9482 76.5605 55.2588 69.8993 55.5215 70.049C54.752 70.755 53.9561 71.345 53.1611 71.8043C51.0205 73.04 48.8799 73.3312 47.2402 72.3969C45.2842 71.2821 44.4912 68.6768 44.8477 65.5552L49.6201 68.2749L55.1924 63.3376L56.6689 56.0662L51.8965 53.3464C52.2979 53.0482 52.7021 52.7811 53.1074 52.5475C55.2549 51.3073 57.4023 51.0057 59.0488 51.9441C61.2979 53.2257 62.001 56.5118 61.1895 60.2524C61.5713 60.47 73.4805 67.2565 73.0205 66.9945C73.7881 66.2964 74.583 65.7097 75.3779 65.2505C77.5254 64.0104 79.6787 63.7007 81.3203 64.636C83.2773 65.751 84.0693 68.3562 83.7129 71.4777Z" fill="#363C13" fill-opacity="1.000000" fill-rule="nonzero"/>
</svg>
