<svg width="58.569336" height="128.000000" viewBox="0 0 58.5693 128" fill="none" xmlns="http://www.w3.org/2000/svg" xmlns:xlink="http://www.w3.org/1999/xlink">
	<desc>
			Created with Pixso.
	</desc>
	<defs/>
	<path id="Vector" d="M36.293 43.3318L48.5459 28.078L35.7373 20.6407L24.5488 34.5707L24.5693 42.2799L36.293 43.3318Z" fill="#363C13" fill-opacity="1.000000" fill-rule="nonzero"/>
	<path id="Vector" d="M14.2529 58.4301C13.6182 56.9893 13.0781 55.21 12.752 53.0002C12.0752 48.2683 12.6318 43.2567 13.9072 38.6174C15.3125 33.2242 18.1367 27.3121 21.1152 22.761L8.25391 15.3046C2.97266 23.2842 -0.0244141 32.2485 0 40.0803C0 46.5684 2.13379 51.3882 6.00977 53.6562C6.28027 53.8127 14.7754 58.7327 14.2529 58.4301Z" fill="#363C13" fill-opacity="1.000000" fill-rule="nonzero"/>
	<path id="Vector" d="M46.6504 52.592C46.6289 52.2388 46.7441 51.8909 46.9688 51.6183C54.1514 42.91 58.5938 31.6884 58.5693 22.3323C58.5449 15.5442 56.2354 10.6367 52.0713 8.51379C52.0498 8.50427 52.0312 8.49329 52.0117 8.4823L52.0635 27.6808C52.0635 27.9846 51.8506 28.4419 51.7539 28.5629L38.0078 45.674C37.6865 46.0724 37.1279 46.2249 36.7891 46.193L23.043 44.959C22.3232 44.8947 21.7695 44.2906 21.7666 43.566C21.7656 43.2922 21.7227 26.9091 21.7227 27.1829C19.6143 30.8662 17.6992 35.2173 16.6172 39.3434C15.4365 43.6409 14.9189 48.1407 15.5264 52.5975C16.6982 60.1718 20.8721 63.5765 25.9443 63.8739C26.7139 63.9177 27.3877 64.5752 27.3467 65.345L24.6816 118.555C24.6299 119.453 24.6562 120.287 24.7109 121.07C25.502 128.077 30.5811 129.689 36.4629 126.276C43.7471 122.054 49.6504 111.83 49.623 103.482C49.623 102.767 48.7666 88.6165 46.6504 52.592ZM41.6289 106.748C41.1221 109.795 38.9395 113.187 36.4082 114.636C34.0264 116.018 32.5332 115.094 32.5107 112.427C32.5107 109.122 34.9238 104.938 37.7861 103.289C40.1475 101.916 42.3086 102.653 41.6289 106.748Z" fill="#363C13" fill-opacity="1.000000" fill-rule="nonzero"/>
	<path id="Vector" d="M49.252 25.2441C49.251 24.749 49.2012 6.59265 49.2021 7.23145L36.7529 0L36.7998 18.0137L49.252 25.2441Z" fill="#363C13" fill-opacity="1.000000" fill-rule="nonzero"/>
	<path id="Vector" d="M11.8877 60.3047L9.39551 109.692C9.18164 113.851 10.3896 117.012 12.7129 118.368L22.418 123.979C21.9043 122.232 21.752 120.207 21.8535 118.404C22.1191 113.098 20.8906 137.621 24.4531 66.5338C22.832 66.2845 21.3027 65.7532 19.8926 64.9478C18.627 64.2139 11.6025 60.1405 11.8877 60.3047Z" fill="#363C13" fill-opacity="1.000000" fill-rule="nonzero"/>
</svg>
