<svg width="729.008057" height="880.000122" viewBox="0 0 729.008 880" fill="none" xmlns="http://www.w3.org/2000/svg" xmlns:xlink="http://www.w3.org/1999/xlink">
	<desc>
			Created with Pixso.
	</desc>
	<defs/>
	<path id="Vector" d="M702.95 103.301C702.651 103.131 702.26 102.905 701.832 102.658C702.3 102.928 702.815 103.225 703.259 103.479C703.157 103.42 703.045 103.357 702.95 103.301Z" fill="#2B310D" fill-opacity="1.000000" fill-rule="nonzero"/>
	<path id="Vector" d="M24.8696 775.406C24.7378 775.331 24.9143 775.431 25.25 775.625C25.1982 775.596 25.1758 775.583 25.1357 775.559C25.0344 775.502 24.9756 775.468 24.8696 775.406Z" fill="#2B310D" fill-opacity="1.000000" fill-rule="nonzero"/>
	<path id="Vector" d="M26.7703 776.503C26.6243 776.419 26.4478 776.319 26.2781 776.22C26.689 776.457 27.0918 776.688 27.4709 776.907C27.2153 776.759 26.9834 776.625 26.7703 776.503Z" fill="#2B310D" fill-opacity="1.000000" fill-rule="nonzero"/>
	<path id="Vector" d="M26.2544 776.205L26.2803 776.221C25.9978 776.059 25.6938 775.883 25.4631 775.75C25.6716 775.87 25.9199 776.012 26.2544 776.205Z" fill="#2B310D" fill-opacity="1.000000" fill-rule="nonzero"/>
	<path id="Vector" d="M285.756 265.681C304.824 242.871 313.587 234.417 329.337 219.262L238.562 166.519C224.635 179.381 211.146 193.094 198.489 207.733L251.591 238.637C249.424 236.922 283.81 264.141 285.756 265.681Z" fill="#2B310D" fill-opacity="1.000000" fill-rule="nonzero"/>
	<path id="Vector" d="M476.353 58.7697C480.535 61.2 394.071 10.9496 387.273 6.99927L250.584 85.9277L339.651 137.69L476.353 58.7697Z" fill="#2B310D" fill-opacity="1.000000" fill-rule="nonzero"/>
	<path id="Vector" d="M662.645 186.547C669.776 197.662 675.88 210.312 680.872 224.348L720.06 197.68L673.116 170.417L662.645 186.547Z" fill="#2B310D" fill-opacity="1.000000" fill-rule="nonzero"/>
	<path id="Vector" d="M505.242 58.8069C498.885 145.074 501.091 115.321 500.617 121.758C512.134 119.581 536.62 118.073 542.76 118.311C540.67 122.417 574.886 55.2015 575.911 53.1892C581.708 56.5579 486.312 1.13501 484.359 0L468.237 31.7418C466.302 30.5149 498.778 49.4189 500.72 50.6306C502.654 51.8351 505.251 55.1732 505.242 58.8069Z" fill="#2B310D" fill-opacity="1.000000" fill-rule="nonzero"/>
	<path id="Vector" d="M89.0103 398.048C85.5271 396.022 83.4548 394.816 82.3469 394.171C83.8247 395.031 86.5764 396.632 89.0103 398.048C96.3962 402.343 109.918 410.208 133.288 423.799C205.45 298.912 226.577 262.351 231.892 253.151C231.91 253.12 231.947 253.054 232 252.963C232.111 252.771 232.273 252.491 232.456 252.173C232.408 252.257 232.358 252.345 232.317 252.416C232.655 251.829 232.909 251.39 233.09 251.078C233.166 250.946 233.239 250.811 233.294 250.722C233.351 250.626 233.402 250.539 233.472 250.416C207.04 235.036 227.478 246.93 141.851 197.106L41.72 370.597C101.047 405.066 96.991 402.694 89.0103 398.048Z" fill="#2B310D" fill-opacity="1.000000" fill-rule="nonzero"/>
	<path id="Vector" d="M334.164 199.768L330.353 154.635L242.487 103.58L246.287 148.708L334.164 199.768Z" fill="#2B310D" fill-opacity="1.000000" fill-rule="nonzero"/>
	<path id="Vector" d="M88.9758 571.827L0.0012207 520.116C-0.0280762 509.632 0.439453 675.092 0.444092 677.028C-5.35498 673.662 87.4675 727.54 89.4209 728.674L88.9758 571.827Z" fill="#2B310D" fill-opacity="1.000000" fill-rule="nonzero"/>
	<path id="Vector" d="M156.416 718.095C154.662 719.298 105.781 752.822 103.938 753.883C100.725 755.731 96.5537 755.076 94.6213 754.062C49.8511 728.049 65.2898 737.024 61.9495 735.083L43.322 763.82L134.872 817.022L174.613 755.96C167.515 744.869 161.428 732.19 156.416 718.095Z" fill="#2B310D" fill-opacity="1.000000" fill-rule="nonzero"/>
	<path id="Vector" d="M286.176 840.5L333.144 867.7L336.516 820.884C321.576 823.706 307.501 824.935 294.411 824.35L286.176 840.5Z" fill="#2B310D" fill-opacity="1.000000" fill-rule="nonzero"/>
	<path id="Vector" d="M643.138 490.952C642.093 488.607 642.018 485.941 642.94 483.539C652.888 457.72 660.885 430.874 666.707 403.745C667.337 400.806 669.306 398.329 672.019 397.048L729.008 370.173L728.565 215.23L681.09 247.539C678.538 249.263 675.325 249.687 672.415 248.641C669.513 247.605 667.281 245.241 666.405 242.273C660.678 222.737 652.869 205.885 643.204 192.199C640.934 188.977 640.849 184.701 642.997 181.385C641.476 183.729 683.736 118.635 685.659 115.673L592.754 62.8645C595.116 58.2372 558.032 130.899 557.043 132.836C555.262 136.34 551.589 138.526 547.623 138.073C516.956 135.494 495.151 143.574 490.013 143.574C485.412 143.574 480.606 139.902 480.56 134.016C480.529 130.546 479.238 149.446 484.634 76.2675L356.533 150.222L349.726 154.153L355.02 216.643C355.195 218.733 354.052 222.632 351.892 224.602C319.934 253.579 304.516 274.117 294.696 285.34C292.015 288.564 285.677 290.245 281.17 286.687C283.183 288.29 251.532 263.099 249.587 261.553C249.044 262.492 248.691 263.102 248.439 263.536C248.518 263.399 248.599 263.26 248.686 263.11C248.515 263.404 248.336 263.716 248.105 264.114C248.125 264.08 248.157 264.023 248.181 263.982C247.965 264.354 247.965 264.355 248.105 264.114C242.971 272.985 222.256 308.769 150.868 432.098C148.519 431.207 186.846 445.741 188.848 446.501C191.24 447.415 193.181 449.251 194.226 451.597C195.272 453.942 195.328 456.618 194.405 459.01C190.142 469.982 176.828 509.585 170.573 538.644C169.998 541.336 167.144 544.539 165.214 545.454C168.867 543.728 110.209 571.451 108.272 572.366L108.715 727.276C105.626 729.386 154.233 696.184 156.171 694.859C157.47 693.984 158.933 693.458 160.437 693.273C161.926 693.081 163.462 693.233 164.922 693.748C167.823 694.775 170.055 697.139 170.931 700.097C176.762 719.85 184.552 736.758 194.075 750.341C194.416 750.826 194.361 751.433 194.602 751.959C195.976 754.931 196.108 758.352 194.273 761.164L151.621 826.744L244.49 879.795C242.217 884.263 277.853 814.218 280.021 809.958C280.795 808.434 282.064 807.33 283.443 806.434C285.184 805.266 287.196 804.536 289.478 804.711C308.116 806.244 327.913 803.516 344.762 799.323C347.748 798.551 350.941 799.314 353.296 801.301C355.66 803.298 356.932 806.294 356.706 809.383L352.608 866.306L487.535 788.406L482.119 726.01C481.855 723.005 483.014 720.047 485.246 718.022C505.762 699.437 524.997 678.95 542.424 657.143C544.025 655.137 546.352 653.856 548.904 653.573C551.419 653.29 554.01 654.044 556.007 655.645L587.76 681.173L686.394 510.319L648.536 496.029C646.134 495.125 644.193 493.298 643.138 490.952ZM426.118 668.813C326.573 726.302 244.392 678.458 244.007 565.99C243.814 457.573 320.593 324.847 415.507 270.059C513.508 213.535 595.496 260.8 595.689 374.04C596.075 482.458 520.067 614.604 426.118 668.813Z" fill="#2B310D" fill-opacity="1.000000" fill-rule="nonzero"/>
	<path id="Vector" d="M140.37 535.702L52.3611 484.553L10.9075 504.064L99.0483 555.344L140.37 535.702Z" fill="#2B310D" fill-opacity="1.000000" fill-rule="nonzero"/>
	<path id="Vector" d="M63.9563 468.981L154.786 521.769C160.226 499.178 169.879 469.51 172.937 461.139C175.516 462.134 133.949 446.103 131.952 445.333L79.3032 414.738C73.0828 432.912 68.0586 451.063 63.9563 468.981Z" fill="#2B310D" fill-opacity="1.000000" fill-rule="nonzero"/>
</svg>
